<svg width="128" height="35" viewBox="0 0 128 35" fill="none" xmlns="http://www.w3.org/2000/svg">
<g id="Theme=Outline White, Store=App Store" clip-path="url(#clip0_2057_20016)">
<g id="Group">
<path id="Vector" d="M1 4.66667C1 2.71614 2.73981 1 5.05929 1H122.941C125.26 1 127 2.71614 127 4.66667V30.3333C127 32.2839 125.26 34 122.941 34H5.05929C2.7398 34 1 32.2839 1 30.3333V4.66667Z" stroke="#707378" stroke-width="2"/>
</g>
<path id="Vector_2" fill-rule="evenodd" clip-rule="evenodd" d="M0 30.3333V4.66667C0 2.08934 2.26512 0 5.05929 0H122.941C125.735 0 128 2.08934 128 4.66667V30.3333C128 32.9107 125.735 35 122.941 35H5.05929C2.26512 35 0 32.9107 0 30.3333ZM0.758893 30.3333V4.66667C0.758893 2.47595 2.68426 0.7 5.05929 0.7H122.941C125.316 0.7 127.241 2.47595 127.241 4.66667V30.3333C127.241 32.5241 125.316 34.3 122.941 34.3H5.05929C2.68426 34.3 0.758893 32.5241 0.758893 30.3333Z" fill="white"/>
<path id="Vector_3" d="M28.9258 18.2117C28.9126 16.1604 29.9202 14.6143 31.955 13.4744C30.8169 11.9705 29.0953 11.1433 26.8257 10.9839C24.6767 10.8275 22.3257 12.1389 21.4648 12.1389C20.555 12.1389 18.4746 11.038 16.8376 11.038C13.4594 11.0862 9.86914 13.5225 9.86914 18.4794C9.86914 19.9442 10.1594 21.4571 10.7398 23.0152C11.5159 25.0665 14.3137 30.0925 17.2322 30.0113C18.7583 29.9782 19.8376 29.0127 21.8235 29.0127C23.7507 29.0127 24.7485 30.0113 26.4508 30.0113C29.3953 29.9721 31.9257 25.4035 32.6626 23.3459C28.7138 21.6285 28.9258 18.317 28.9258 18.2117ZM25.4984 9.03786C27.1517 7.22714 27.0017 5.57888 26.9529 4.98633C25.492 5.06454 23.8029 5.9037 22.8409 6.93538C21.7811 8.04227 21.1583 9.41082 21.292 10.9538C22.8702 11.0651 24.3115 10.3162 25.4984 9.03786Z" fill="#707378"/>
<path id="Vector_4" d="M40.0703 10.4885H40.8805C41.6632 10.4885 42.1218 10.813 42.1218 11.3599V11.3672C42.1218 11.874 41.6394 12.2057 40.9043 12.2057C40.1532 12.2057 39.6751 11.9323 39.6119 11.4474L39.6078 11.4182H38.7422L38.7462 11.462C38.8054 12.3297 39.6435 12.9203 40.9043 12.9203C42.1256 12.9203 43.0269 12.2714 43.0269 11.4037V11.3964C43.0269 10.6891 42.5564 10.1896 41.7937 10.1021V10.0729C42.4261 9.93804 42.8529 9.44949 42.8529 8.86615V8.85887C42.8529 8.04585 42.0702 7.48438 40.924 7.48438C39.7303 7.48438 38.9516 8.0276 38.8924 8.91721L38.8884 8.96824H39.7384L39.7422 8.91721C39.8094 8.4651 40.2246 8.19896 40.8964 8.19896C41.5802 8.19896 41.9756 8.47971 41.9756 8.94637V8.95365C41.9756 9.45677 41.5367 9.80313 40.857 9.80313H40.0703V10.4885Z" fill="#707378"/>
<path id="Vector_5" d="M45.8914 12.9034C46.4446 12.9034 46.923 12.6409 47.1641 12.2289H47.1838V12.8341H48.0376V10.1909C48.0376 9.42161 47.3933 8.92578 46.3776 8.92578C45.3539 8.92578 44.7333 9.43256 44.6739 10.0924L44.6701 10.1326H45.4763L45.4841 10.0997C45.5555 9.7935 45.8598 9.57839 46.3538 9.57839C46.8835 9.57839 47.1838 9.83359 47.1838 10.2565V10.5445L46.0495 10.6065C45.0652 10.6612 44.5039 11.0695 44.5039 11.7367V11.744C44.5039 12.4331 45.0612 12.9034 45.8914 12.9034ZM45.3658 11.7258V11.7185C45.3658 11.394 45.6503 11.1862 46.1641 11.157L47.1838 11.0987V11.3977C47.1838 11.8971 46.7254 12.2727 46.1246 12.2727C45.666 12.2727 45.3658 12.0612 45.3658 11.7258Z" fill="#707378"/>
<path id="Vector_6" d="M52.5829 9.62513V8.99805H49.8281V12.8335H50.6819V9.62513H52.5829Z" fill="#707378"/>
<path id="Vector_7" d="M54.6465 14.1102H55.5002V12.1888H55.52C55.7651 12.6336 56.2434 12.9107 56.8323 12.9107C57.8758 12.9107 58.5596 12.1414 58.5596 10.9201V10.9164C58.5596 9.69139 57.8796 8.92578 56.8205 8.92578C56.2275 8.92578 55.7691 9.20286 55.52 9.65859H55.5002V8.9987H54.6465V14.1102ZM56.5991 12.2326C55.9548 12.2326 55.4964 11.7148 55.4964 10.9201V10.9164C55.4964 10.118 55.9508 9.60025 56.5991 9.60025C57.271 9.60025 57.6899 10.0997 57.6899 10.9164V10.9201C57.6899 11.7294 57.271 12.2326 56.5991 12.2326Z" fill="#707378"/>
<path id="Vector_8" d="M60.5645 14.1132C61.3788 14.1132 61.8137 13.8069 62.122 13.0121L63.6714 8.99805H62.7701L61.7226 12.1189H61.695L60.6475 8.99805H59.7227L61.2366 12.8371L61.1653 13.0194C61.0231 13.3913 60.8018 13.4897 60.3986 13.4897C60.284 13.4897 60.1851 13.4751 60.118 13.4605V14.0767C60.2207 14.0949 60.3986 14.1132 60.5645 14.1132Z" fill="#707378"/>
<path id="Vector_9" d="M66.6044 12.9107C67.6241 12.9107 68.3001 12.4331 68.3001 11.7185V11.7112C68.3001 11.2628 67.9995 10.9565 67.4501 10.8544V10.8253C67.8968 10.7305 68.1855 10.406 68.1855 9.994V9.98672C68.1855 9.33047 67.6004 8.92578 66.6439 8.92578C65.7072 8.92578 65.0945 9.33411 64.9956 10.0159L64.9918 10.0451H65.8058L65.8099 10.0195C65.8731 9.72786 66.1853 9.54922 66.632 9.54922C67.0826 9.54922 67.3515 9.74245 67.3515 10.0706V10.0779C67.3515 10.4206 67.0944 10.5956 66.5926 10.5956H65.9956V11.168H66.5964C67.1736 11.168 67.4501 11.343 67.4501 11.7112V11.7185C67.4501 12.0685 67.1261 12.2836 66.6004 12.2836C66.1301 12.2836 65.8218 12.1159 65.7269 11.806L65.715 11.7695H64.877L64.881 11.8023C64.964 12.4805 65.6321 12.9107 66.6044 12.9107Z" fill="#707378"/>
<path id="Vector_10" d="M69.9414 12.8335H70.7833L72.6921 10.1392H72.7278V12.8335H73.5775V8.99805H72.7356L70.8268 11.6814H70.7871V8.99805H69.9414V12.8335Z" fill="#707378"/>
<path id="Vector_11" d="M78.5481 8.99805H75.0898V9.62513H76.3901V12.8335H77.2479V9.62513H78.5481V8.99805Z" fill="#707378"/>
<path id="Vector_12" d="M81.7573 12.9107C82.7654 12.9107 83.4097 12.3565 83.54 11.7477L83.5519 11.7076H82.7376L82.7259 11.7367C82.6192 12.0247 82.2833 12.2654 81.7773 12.2654C81.0974 12.2654 80.6666 11.8424 80.6506 11.1169H83.5954V10.8508C83.5954 9.6987 82.88 8.92578 81.7141 8.92578C80.5479 8.92578 79.7969 9.72786 79.7969 10.9273V10.931C79.7969 12.1414 80.536 12.9107 81.7573 12.9107ZM81.7179 9.57109C82.2752 9.57109 82.6824 9.89556 82.7495 10.5591H80.6625C80.7417 9.91745 81.1647 9.57109 81.7179 9.57109Z" fill="#707378"/>
<path id="Vector_13" d="M87.7578 12.8335H89.671C90.572 12.8335 91.1334 12.4032 91.1334 11.7324V11.7251C91.1334 11.2548 90.7777 10.9121 90.2402 10.8465V10.8173C90.6393 10.748 90.9477 10.3871 90.9477 9.98971V9.98241C90.9477 9.37357 90.4575 8.99805 89.6472 8.99805H87.7578V12.8335ZM88.6037 10.5804V9.58138H89.4694C89.8804 9.58138 90.1018 9.75274 90.1018 10.0699V10.0772C90.1018 10.4163 89.8645 10.5804 89.3824 10.5804H88.6037ZM88.6037 12.2501V11.1527H89.414C89.9753 11.1527 90.2558 11.3241 90.2558 11.6923V11.6996C90.2558 12.0642 89.995 12.2501 89.5129 12.2501H88.6037Z" fill="#707378"/>
<path id="Vector_14" d="M46.7368 25.3271H45.0619L44.1444 22.6557H40.9558L40.0818 25.3271H38.4512L41.6104 16.2324H43.5618L46.7368 25.3271ZM43.8679 21.5349L43.0382 19.1601C42.9506 18.9175 42.786 18.3462 42.5434 17.4468H42.514C42.4174 17.8336 42.2618 18.405 42.0478 19.1601L41.233 21.5349H43.8679Z" fill="#707378"/>
<path id="Vector_15" d="M55.3188 21.9697C55.3188 23.085 54.9937 23.9666 54.3431 24.6138C53.7605 25.1899 53.037 25.4776 52.1734 25.4776C51.2412 25.4776 50.5716 25.1673 50.1639 24.5469H50.1343V28.0014H48.5621V20.9302C48.5621 20.229 48.5421 19.5094 48.5039 18.7714H49.8866L49.9744 19.8108H50.0037C50.5281 19.0276 51.324 18.6367 52.3917 18.6367C53.2265 18.6367 53.9234 18.9422 54.4809 19.5538C55.04 20.1662 55.3188 20.9712 55.3188 21.9697ZM53.717 22.023C53.717 21.3847 53.5622 20.8584 53.251 20.4443C52.9111 20.0124 52.4545 19.7965 51.8822 19.7965C51.4942 19.7965 51.1418 19.9167 50.8269 20.1539C50.5112 20.3931 50.3048 20.7054 50.2081 21.0922C50.1596 21.2726 50.135 21.4202 50.135 21.5364V22.6298C50.135 23.1068 50.2929 23.5095 50.6086 23.838C50.9243 24.1668 51.3343 24.3308 51.8387 24.3308C52.4309 24.3308 52.8918 24.1189 53.2214 23.6966C53.5518 23.2736 53.717 22.7159 53.717 22.023Z" fill="#707378"/>
<path id="Vector_16" d="M63.4589 21.9697C63.4589 23.085 63.1336 23.9666 62.4824 24.6138C61.9006 25.1899 61.1771 25.4776 60.3135 25.4776C59.3814 25.4776 58.7118 25.1673 58.3047 24.5469H58.2751V28.0014H56.703V20.9302C56.703 20.229 56.683 19.5094 56.6445 18.7714H58.0275L58.115 19.8108H58.1446C58.6682 19.0276 59.4641 18.6367 60.5326 18.6367C61.3666 18.6367 62.0635 18.9422 62.6226 19.5538C63.1794 20.1662 63.4589 20.9712 63.4589 21.9697ZM61.8571 22.023C61.8571 21.3847 61.7015 20.8584 61.3904 20.4443C61.0504 20.0124 60.5953 19.7965 60.0224 19.7965C59.6336 19.7965 59.2819 19.9167 58.9662 20.1539C58.6505 20.3931 58.4449 20.7054 58.3482 21.0922C58.3002 21.2726 58.2751 21.4202 58.2751 21.5364V22.6298C58.2751 23.1068 58.433 23.5095 58.7472 23.838C59.0629 24.1661 59.4729 24.3308 59.9789 24.3308C60.571 24.3308 61.0319 24.1189 61.3616 23.6966C61.6919 23.2736 61.8571 22.7159 61.8571 22.023Z" fill="#707378"/>
<path id="Vector_17" d="M72.5593 22.7771C72.5593 23.5506 72.2694 24.1802 71.6876 24.666C71.0483 25.197 70.1582 25.4621 69.0143 25.4621C67.9581 25.4621 67.1115 25.2736 66.4707 24.8956L66.835 23.6813C67.5253 24.0682 68.2827 24.2621 69.1079 24.2621C69.7 24.2621 70.1609 24.1377 70.4921 23.8904C70.8217 23.643 70.9864 23.3109 70.9864 22.8967C70.9864 22.5277 70.8505 22.2167 70.5783 21.9646C70.3077 21.7124 69.8556 21.478 69.2245 21.2613C67.5061 20.6675 66.6478 19.7975 66.6478 18.6535C66.6478 17.9058 66.9486 17.2928 67.5511 16.8158C68.1514 16.3381 68.9523 16.0996 69.9538 16.0996C70.847 16.0996 71.5887 16.2438 72.1809 16.5315L71.788 17.7193C71.2348 17.4404 70.6095 17.301 69.9095 17.301C69.3565 17.301 68.9242 17.4275 68.6146 17.6789C68.3528 17.9038 68.2215 18.1778 68.2215 18.5025C68.2215 18.8619 68.3712 19.1592 68.672 19.3929C68.9338 19.6089 69.4096 19.8426 70.0997 20.0948C70.9441 20.4098 71.5644 20.7782 71.9633 21.2005C72.361 21.6215 72.5593 22.1484 72.5593 22.7771Z" fill="#707378"/>
<path id="Vector_18" d="M77.757 19.8622H76.024V23.0462C76.024 23.856 76.3293 24.2607 76.9415 24.2607C77.2225 24.2607 77.4555 24.238 77.6399 24.193L77.6834 25.2994C77.3735 25.4065 76.9658 25.4607 76.4606 25.4607C75.8396 25.4607 75.3544 25.285 75.004 24.9345C74.6552 24.5831 74.4799 23.994 74.4799 23.1665V19.8608H73.4473V18.7674H74.4799V17.5667L76.024 17.1348V18.7674H77.757V19.8622Z" fill="#707378"/>
<path id="Vector_19" d="M85.576 21.9956C85.576 23.0037 85.2649 23.8313 84.6438 24.4785C83.9927 25.1447 83.1283 25.477 82.051 25.477C81.0125 25.477 80.1858 25.1578 79.5694 24.5194C78.9526 23.8812 78.6445 23.0754 78.6445 22.1043C78.6445 21.0881 78.9615 20.2557 79.598 19.6085C80.2329 18.9607 81.0899 18.6367 82.1673 18.6367C83.2057 18.6367 84.0413 18.9559 84.6719 19.5949C85.2752 20.2147 85.576 21.015 85.576 21.9956ZM83.9446 22.0428C83.9446 21.438 83.8053 20.9193 83.523 20.4867C83.1933 19.9632 82.7221 19.7021 82.1114 19.7021C81.4792 19.7021 80.9991 19.9639 80.6695 20.4867C80.3872 20.92 80.2478 21.4469 80.2478 22.0701C80.2478 22.6749 80.3872 23.1936 80.6695 23.6255C81.0095 24.1491 81.4846 24.4102 82.0972 24.4102C82.6978 24.4102 83.1688 24.1437 83.5088 23.6119C83.7987 23.1711 83.9446 22.6469 83.9446 22.0428Z" fill="#707378"/>
<path id="Vector_20" d="M90.6865 20.0527C90.5309 20.0261 90.365 20.0124 90.191 20.0124C89.6377 20.0124 89.2102 20.2058 88.9092 20.5933C88.6474 20.935 88.5161 21.3669 88.5161 21.8883V25.3292H86.9447L86.9593 20.8366C86.9593 20.0807 86.9393 19.3926 86.9004 18.772H88.2697L88.3274 20.0268H88.3709C88.5368 19.5955 88.7986 19.2484 89.1571 18.988C89.5072 18.7536 89.8856 18.6367 90.2934 18.6367C90.4389 18.6367 90.5699 18.6463 90.6865 18.6634V20.0527Z" fill="#707378"/>
<path id="Vector_21" d="M97.7189 21.7387C97.7189 21.9997 97.7007 22.2198 97.6615 22.3995H92.9444C92.9629 23.0474 93.1908 23.5428 93.629 23.8846C94.0264 24.1901 94.5404 24.3431 95.1718 24.3431C95.8702 24.3431 96.5072 24.24 97.0804 24.0328L97.3265 25.0443C96.6569 25.315 95.8664 25.4496 94.9542 25.4496C93.8569 25.4496 92.9955 25.1502 92.3687 24.5522C91.7431 23.9542 91.4297 23.1513 91.4297 22.1439C91.4297 21.155 91.7211 20.3315 92.3044 19.6748C92.9151 18.9736 93.7403 18.623 94.7787 18.623C95.7986 18.623 96.5707 18.9736 97.0951 19.6748C97.5102 20.2318 97.7189 20.9206 97.7189 21.7387ZM96.2198 21.3607C96.2299 20.9288 96.1275 20.5557 95.9145 20.2407C95.6423 19.8354 95.2242 19.6331 94.6613 19.6331C94.1473 19.6331 93.7291 19.8306 93.4099 20.227C93.1481 20.542 92.9925 20.92 92.9444 21.3601H96.2198V21.3607Z" fill="#707378"/>
</g>
<defs>
<clipPath id="clip0_2057_20016">
<rect width="128" height="35" fill="white"/>
</clipPath>
</defs>
</svg>
