<svg width="9" height="16" viewBox="0 0 9 16" fill="none" xmlns="http://www.w3.org/2000/svg">
<path d="M8.59987 2.69728L3.29648 8.00771L8.59987 13.3181C8.72642 13.4449 8.8268 13.5953 8.89529 13.7608C8.96377 13.9264 8.99902 14.1038 8.99902 14.283C8.99902 14.4622 8.96377 14.6397 8.89529 14.8053C8.8268 14.9708 8.72642 15.1212 8.59987 15.248C8.47333 15.3747 8.3231 15.4752 8.15775 15.5438C7.99241 15.6123 7.8152 15.6476 7.63624 15.6476C7.45728 15.6476 7.28007 15.6123 7.11473 15.5438C6.94939 15.4752 6.79916 15.3747 6.67261 15.248L0.39875 8.96578C0.272038 8.83915 0.171509 8.68875 0.102918 8.52318C0.0343281 8.35761 -0.000977858 8.18012 -0.00097785 8.00087C-0.000977843 7.82161 0.0343281 7.64412 0.102918 7.47855C0.171509 7.31298 0.272038 7.16258 0.39875 7.03596L6.67261 0.753774C6.79906 0.626893 6.94926 0.526231 7.11462 0.45755C7.27997 0.388868 7.45723 0.353516 7.63624 0.353516C7.81526 0.353516 7.99251 0.388868 8.15787 0.45755C8.32322 0.526231 8.47342 0.626893 8.59987 0.753774C9.11928 1.28755 9.13295 2.1635 8.59987 2.69728Z" fill="#A9AEB2"/>
</svg>
