<svg width="29" height="32" viewBox="0 0 29 32" fill="none" xmlns="http://www.w3.org/2000/svg">
<g id="ic:round-arrow-drop-down">
<path id="Vector" d="M10.1638 22.0106L15.0126 17.2488L10.1638 12.4869C10.0481 12.3733 9.95629 12.2384 9.89367 12.0899C9.83106 11.9415 9.79883 11.7823 9.79883 11.6217C9.79883 11.461 9.83106 11.3018 9.89367 11.1534C9.95629 11.0049 10.0481 10.87 10.1638 10.7564C10.2795 10.6428 10.4168 10.5527 10.568 10.4912C10.7192 10.4297 10.8812 10.398 11.0448 10.398C11.2084 10.398 11.3704 10.4297 11.5216 10.4912C11.6728 10.5527 11.8101 10.6428 11.9258 10.7564L17.6619 16.3897C17.7778 16.5032 17.8697 16.6381 17.9324 16.7865C17.9951 16.935 18.0274 17.0942 18.0274 17.2549C18.0274 17.4156 17.9951 17.5748 17.9324 17.7233C17.8697 17.8717 17.7778 18.0066 17.6619 18.1201L11.9258 23.7534C11.8102 23.8672 11.6729 23.9574 11.5217 24.019C11.3705 24.0806 11.2085 24.1123 11.0448 24.1123C10.8811 24.1123 10.7191 24.0806 10.5679 24.019C10.4167 23.9574 10.2794 23.8672 10.1638 23.7534C9.68888 23.2747 9.67638 22.4893 10.1638 22.0106Z" fill="#25472F"/>
</g>
</svg>
