<svg width="10" height="17" viewBox="0 0 10 17" fill="none" xmlns="http://www.w3.org/2000/svg">
<path id="Vector" d="M0.411623 14.289L5.88075 8.42963L0.411625 2.57028C0.281124 2.43047 0.177606 2.26449 0.10698 2.08182C0.0363538 1.89915 1.99801e-06 1.70336 2.02265e-06 1.50564C2.0473e-06 1.30791 0.0363539 1.11213 0.10698 0.929454C0.177607 0.74678 0.281125 0.580799 0.411625 0.440989C0.542126 0.301176 0.697052 0.190273 0.867559 0.114609C1.03807 0.0389425 1.22081 -1.74784e-06 1.40537 -1.72372e-06C1.58993 -1.69961e-06 1.77267 0.0389426 1.94318 0.114609C2.11369 0.190274 2.26861 0.301176 2.39911 0.440989L8.86903 7.37253C8.9997 7.51224 9.10337 7.67819 9.1741 7.86087C9.24484 8.04356 9.28125 8.2394 9.28125 8.43718C9.28125 8.63496 9.24484 8.8308 9.1741 9.01349C9.10337 9.19617 8.9997 9.36212 8.86903 9.50183L2.39911 16.4334C2.26871 16.5734 2.11381 16.6844 1.94329 16.7602C1.77277 16.836 1.58998 16.875 1.40537 16.875C1.22076 16.875 1.03796 16.836 0.867443 16.7602C0.696923 16.6844 0.542027 16.5734 0.411623 16.4334C-0.124012 15.8444 -0.138108 14.8779 0.411623 14.289Z" fill="white"/>
</svg>
