<svg width="9" height="6" viewBox="0 0 9 6" fill="none" xmlns="http://www.w3.org/2000/svg">
<path id="Vector" d="M2.07219 0.74856L4.91308 3.66023L7.75398 0.74856C7.82177 0.679084 7.90224 0.623973 7.99081 0.586372C8.07938 0.548772 8.1743 0.529419 8.27017 0.529419C8.36604 0.529419 8.46096 0.548772 8.54953 0.586372C8.6381 0.623973 8.71858 0.679084 8.78636 0.74856C8.85415 0.818036 8.90792 0.900516 8.94461 0.991291C8.9813 1.08207 9.00018 1.17936 9.00018 1.27761C9.00018 1.37587 8.9813 1.47316 8.94461 1.56393C8.90792 1.65471 8.85415 1.73719 8.78636 1.80667L5.42562 5.25114C5.35788 5.3207 5.27742 5.3759 5.18884 5.41355C5.10027 5.45121 5.00532 5.4706 4.90942 5.4706C4.81353 5.4706 4.71858 5.45121 4.63 5.41355C4.54143 5.3759 4.46097 5.3207 4.39323 5.25114L1.03248 1.80667C0.964607 1.73724 0.910756 1.65478 0.874014 1.56399C0.837272 1.47321 0.818359 1.3759 0.818359 1.27761C0.818359 1.17933 0.837272 1.08201 0.874014 0.991231C0.910756 0.900449 0.964607 0.817985 1.03248 0.74856C1.31804 0.463397 1.78664 0.455892 2.07219 0.74856Z" fill="#93C200"/>
</svg>
