<svg width="52" height="12" viewBox="0 0 52 12" fill="none" xmlns="http://www.w3.org/2000/svg">
<g id="Retina" opacity="0.8">
<g id="Vector">
<path d="M6.18012 9.82935H2.80778L1.97975 11.8812H0L4.58428 1H4.67461L9.24383 11.8812H6.93288L6.18012 9.82935ZM5.51017 8.08058L4.53159 5.53126L3.50784 8.08058H5.51017Z" fill="black"/>
<path d="M15.2655 3.16828C14.9052 3.141 14.5455 3.22776 14.2342 3.417C14.1076 3.51193 14.007 3.63921 13.9423 3.78637C13.8777 3.93352 13.8511 4.09549 13.8654 4.25641C13.8744 4.43672 13.9283 4.61159 14.0219 4.76408C14.1156 4.91658 14.2457 5.04155 14.3998 5.12691C14.8406 5.42767 15.316 5.67048 15.815 5.84973C16.2481 6.0077 16.6623 6.21632 17.0495 6.47152C17.3997 6.72027 17.6884 7.05037 17.8926 7.43528C18.1318 7.91499 18.2459 8.4507 18.2238 8.98975C18.2274 9.53701 18.0781 10.0737 17.7937 10.5356C17.5093 10.9974 17.102 11.3647 16.6204 11.5935C16.0361 11.8815 15.3932 12.0202 14.7461 11.9976C14.1386 11.9982 13.5346 11.9039 12.9545 11.7178C12.3552 11.5384 11.79 11.2545 11.2834 10.8784L12.2018 9.26178C12.5671 9.53965 12.9705 9.7597 13.3986 9.91465C13.7872 10.0751 14.1998 10.1646 14.6181 10.1789C15.0044 10.188 15.3862 10.0915 15.7247 9.89911C15.876 9.8043 15.9981 9.667 16.0768 9.50323C16.1554 9.33947 16.1873 9.15599 16.1688 8.9742C16.1688 8.43791 15.6795 7.97157 14.6633 7.58296C14.1655 7.38679 13.6803 7.15835 13.2105 6.89899C12.8108 6.67343 12.4659 6.35719 12.2018 5.97409C11.9043 5.51558 11.7566 4.97093 11.7802 4.41962C11.7698 4.01437 11.8429 3.61147 11.9948 3.23762C12.1466 2.86376 12.3737 2.52751 12.6609 2.25115C13.292 1.66505 14.1081 1.33627 14.9569 1.32624C15.5961 1.3125 16.2336 1.40166 16.8463 1.5905C17.3794 1.77915 17.8857 2.04054 18.3518 2.36773L17.599 3.9222C16.895 3.47227 16.0924 3.21297 15.2655 3.16828Z" fill="black"/>
<path d="M27.7386 1.38885V3.41742H25.2696V11.8815H23.2597V3.41742H20.8886V1.38885H27.7386Z" fill="black"/>
<path d="M31.021 3.41742V1.38885H37.9614V3.41742H31.021ZM31.021 7.65333V5.62476H37.4194V7.62225L31.021 7.65333ZM33.0233 9.92285H38.1496V11.9126H31.021V9.89176L33.0233 9.92285Z" fill="black"/>
<path d="M47.2576 11.8814C46.9063 11.959 46.548 11.9981 46.1887 11.998C45.2789 12.0052 44.3841 11.7581 43.5993 11.283C43.0109 10.9321 42.4952 10.4649 42.0818 9.90811C41.6684 9.35135 41.3652 8.71592 41.1898 8.03814C41.0143 7.36035 40.9699 6.65351 41.0592 5.95801C41.1484 5.26251 41.3695 4.59199 41.7098 3.98476C42.1638 3.16911 42.8147 2.48892 43.5993 2.01059C44.3827 1.52955 45.2773 1.27564 46.1887 1.27564C47.1002 1.27564 47.9948 1.52955 48.7782 2.01059C49.567 2.49102 50.2249 3.17027 50.6902 3.98476C51.067 4.63588 51.3019 5.36391 51.3786 6.11824C51.4552 6.87257 51.3719 7.63509 51.1343 8.3528C50.9603 8.89252 50.7064 9.40115 50.3816 9.86063H52V11.8814H47.2576ZM43.5014 8.32948C43.7783 8.82887 44.1749 9.24639 44.6531 9.54197C45.1374 9.84868 45.6959 10.0077 46.264 10.0005C46.8148 10.002 47.3549 9.8431 47.8222 9.54197C48.2858 9.2426 48.6668 8.82504 48.9288 8.32948C49.191 7.81133 49.3279 7.23532 49.3277 6.65066C49.3273 6.06419 49.185 5.48711 48.9137 4.97184C48.6529 4.48253 48.2715 4.07304 47.8082 3.78478C47.3448 3.49652 46.816 3.33972 46.2751 3.33026C45.7343 3.32079 45.2006 3.45899 44.7281 3.73087C44.2555 4.00275 43.8609 4.39867 43.5842 4.87858C43.5639 4.90792 43.5462 4.93914 43.5315 4.97184C43.2533 5.48429 43.1105 6.06326 43.1175 6.65066C43.1003 7.23539 43.2327 7.81447 43.5014 8.32948Z" fill="black"/>
</g>
</g>
</svg>
