<svg width="76" height="87" viewBox="0 0 76 87" fill="none" xmlns="http://www.w3.org/2000/svg">
<ellipse cx="38" cy="79.5" rx="29" ry="6.5" fill="url(#paint0_radial_2661_23839)"/>
<g filter="url(#filter0_d_2661_23839)">
<path d="M66 36.1005C66 49.1958 59 58 46 64L38 77L30 64C17 58 10 49.1958 10 36.1005C10 28.3826 12.95 20.9808 18.201 15.5233C23.452 10.0659 30.5739 7 38 7C45.4261 7 52.548 10.0659 57.799 15.5233C63.05 20.9808 66 28.3826 66 36.1005Z" fill="white"/>
<path d="M37.1483 77.5241C37.3303 77.8198 37.6527 78 38 78C38.3473 78 38.6697 77.8198 38.8517 77.5241L46.694 64.7802C53.1643 61.755 58.2253 58.0006 61.6805 53.3035C65.1943 48.5269 67 42.8393 67 36.1005C67 28.1295 63.9537 20.4776 58.5196 14.83C53.0843 9.18104 45.704 6 38 6C30.296 6 22.9157 9.18104 17.4804 14.83C12.0464 20.4776 9 28.1295 9 36.1005C9 42.8393 10.8057 48.5269 14.3195 53.3035C17.7747 58.0006 22.8357 61.755 29.306 64.7802L37.1483 77.5241Z" stroke="white" stroke-width="2" stroke-linecap="round" stroke-linejoin="round"/>
</g>
<g clip-path="url(#clip0_2661_23839)">
<path d="M37.9992 60.9984C51.8059 60.9984 62.9984 49.8059 62.9984 35.9992C62.9984 22.1925 51.8059 11 37.9992 11C24.1925 11 13 22.1925 13 35.9992C13 49.8059 24.1925 60.9984 37.9992 60.9984Z" fill="#25472F"/>
<g clip-path="url(#clip1_2661_23839)">
<path fill-rule="evenodd" clip-rule="evenodd" d="M51.2582 26.4319C51.6487 26.8226 51.8681 27.3524 51.8681 27.9048C51.8681 28.4572 51.6487 28.987 51.2582 29.3777L35.6429 44.993C35.4365 45.1994 35.1915 45.3631 34.9219 45.4749C34.6522 45.5866 34.3632 45.6441 34.0713 45.6441C33.7795 45.6441 33.4905 45.5866 33.2208 45.4749C32.9512 45.3631 32.7062 45.1994 32.4998 44.993L24.7415 37.2361C24.5425 37.0439 24.3838 36.814 24.2746 36.5598C24.1654 36.3056 24.108 36.0323 24.1055 35.7556C24.1031 35.479 24.1559 35.2047 24.2606 34.9487C24.3654 34.6926 24.5201 34.46 24.7157 34.2644C24.9113 34.0688 25.1439 33.9141 25.3999 33.8093C25.6559 33.7046 25.9303 33.6519 26.2069 33.6543C26.4835 33.6567 26.7569 33.7142 27.0111 33.8233C27.2653 33.9325 27.4951 34.0912 27.6873 34.2902L34.0707 40.6736L48.3109 26.4319C48.5044 26.2383 48.7341 26.0847 48.987 25.9799C49.2398 25.8752 49.5108 25.8212 49.7845 25.8212C50.0582 25.8212 50.3293 25.8752 50.5821 25.9799C50.835 26.0847 51.0647 26.2383 51.2582 26.4319Z" fill="white"/>
</g>
</g>
<defs>
<filter id="filter0_d_2661_23839" x="0" y="-3" width="76" height="90" filterUnits="userSpaceOnUse" color-interpolation-filters="sRGB">
<feFlood flood-opacity="0" result="BackgroundImageFix"/>
<feColorMatrix in="SourceAlpha" type="matrix" values="0 0 0 0 0 0 0 0 0 0 0 0 0 0 0 0 0 0 127 0" result="hardAlpha"/>
<feOffset/>
<feGaussianBlur stdDeviation="4"/>
<feComposite in2="hardAlpha" operator="out"/>
<feColorMatrix type="matrix" values="0 0 0 0 0 0 0 0 0 0 0 0 0 0 0 0 0 0 0.25 0"/>
<feBlend mode="normal" in2="BackgroundImageFix" result="effect1_dropShadow_2661_23839"/>
<feBlend mode="normal" in="SourceGraphic" in2="effect1_dropShadow_2661_23839" result="shape"/>
</filter>
<radialGradient id="paint0_radial_2661_23839" cx="0" cy="0" r="1" gradientUnits="userSpaceOnUse" gradientTransform="translate(38 79.5) rotate(90) scale(5.85 26.1)">
<stop stop-opacity="0.1"/>
<stop offset="1" stop-opacity="0"/>
</radialGradient>
<clipPath id="clip0_2661_23839">
<rect width="50" height="50" fill="white" transform="translate(13 11)"/>
</clipPath>
<clipPath id="clip1_2661_23839">
<rect width="33.3333" height="33.3333" fill="white" transform="translate(21.3333 19.3333)"/>
</clipPath>
</defs>
</svg>
