<svg width="51" height="60" viewBox="0 0 51 60" fill="none" xmlns="http://www.w3.org/2000/svg">
<g filter="url(#filter0_d_2661_23803)">
<path d="M43.9506 26.3497C43.9506 34.9182 38.9999 41.0001 30.8642 44.6049L25.6296 53.1111L20.395 44.6049C11.9999 41.0001 7.30859 34.9182 7.30859 26.3497C7.30859 21.2997 9.23884 16.4566 12.6747 12.8857C16.1105 9.31476 20.7706 7.30865 25.6296 7.30865C30.4886 7.30865 35.1486 9.31476 38.5845 12.8857C42.0203 16.4566 43.9506 21.2997 43.9506 26.3497Z" fill="white"/>
<path d="M25.0723 53.4541C25.1914 53.6476 25.4024 53.7654 25.6296 53.7654C25.8568 53.7654 26.0678 53.6476 26.1868 53.4541L31.3155 45.12C39.518 41.426 44.6049 35.1709 44.6049 26.3497C44.6049 21.1342 42.6116 16.1274 39.056 12.432C35.4995 8.73576 30.6705 6.65433 25.6296 6.65433C20.5887 6.65433 15.7596 8.73576 12.2032 12.432C8.64756 16.1274 6.65427 21.1342 6.65427 26.3497C6.65427 30.7604 7.86419 34.5609 10.1753 37.7247C12.4478 40.8356 15.7581 43.2947 19.9458 45.1235L25.0723 53.4541Z" stroke="white" stroke-width="1.30864" stroke-linecap="round" stroke-linejoin="round"/>
</g>
<g clip-path="url(#clip0_2661_23803)">
<path d="M25.6292 42.641C34.6632 42.641 41.9867 35.3175 41.9867 26.2835C41.9867 17.2495 34.6632 9.92596 25.6292 9.92596C16.5952 9.92596 9.27173 17.2495 9.27173 26.2835C9.27173 35.3175 16.5952 42.641 25.6292 42.641Z" fill="#25472F"/>
<path d="M23.4709 24.9669C23.3028 24.396 23.8359 22.9969 23.8359 22.9969C23.8359 22.9969 25.0366 23.8652 25.2037 24.4351C25.3717 25.006 25.1197 25.5874 24.6407 25.7342C24.1618 25.8809 23.638 25.5369 23.4699 24.9669H23.4709ZM28.6824 29.19C28.2492 29.2291 27.4481 29.9935 27.4481 29.9935C27.4481 29.9935 28.3687 30.6015 28.8019 30.5624C29.2351 30.5234 29.56 30.1841 29.5273 29.8057C29.4946 29.4273 29.1165 29.1519 28.6833 29.191L28.6824 29.19ZM18.1399 23.3953C18.6132 23.3524 18.968 22.9826 18.9316 22.569C18.8952 22.1554 18.4825 21.8551 18.0092 21.898C17.5358 21.9409 16.661 22.7749 16.661 22.7749C16.661 22.7749 17.6665 23.4382 18.1399 23.3953ZM26.648 27.3925C27.0457 27.2705 27.2558 26.7864 27.1158 26.3117C26.9757 25.8371 25.9777 25.1156 25.9777 25.1156C25.9777 25.1156 25.5342 26.2793 25.6742 26.754C25.8143 27.2286 26.2503 27.5145 26.648 27.3925ZM28.4704 28.8765C28.7757 28.7831 28.9363 28.4123 28.829 28.0482C28.7216 27.6842 27.957 27.1314 27.957 27.1314C27.957 27.1314 27.6171 28.0234 27.7245 28.3866C27.8318 28.7506 28.1652 28.9689 28.4704 28.8755V28.8765ZM26.5584 29.4817C27.0877 29.434 27.4845 29.0194 27.4444 28.5562C27.4042 28.093 26.9421 27.7566 26.4127 27.8052C25.8834 27.8528 24.904 28.7869 24.904 28.7869C24.904 28.7869 26.029 29.5293 26.5584 29.4817ZM24.2112 26.2669C23.5848 26.3241 22.4271 27.4278 22.4271 27.4278C22.4271 27.4278 23.7575 28.3065 24.384 28.2493C25.0104 28.1921 25.4791 27.7023 25.4315 27.1552C25.3839 26.6081 24.8377 26.2097 24.2112 26.2669ZM22.4598 24.0567C22.9751 23.8985 23.2468 23.2724 23.0657 22.6576C22.8846 22.0429 21.5924 21.1079 21.5924 21.1079C21.5924 21.1079 21.0182 22.6157 21.1994 23.2295C21.3805 23.8442 21.9444 24.214 22.4607 24.0558L22.4598 24.0567ZM21.9136 24.7391C21.2871 24.7963 20.1294 25.9 20.1294 25.9C20.1294 25.9 21.4598 26.7787 22.0863 26.7215C22.7128 26.6644 23.1815 26.1754 23.1338 25.6274C23.0862 25.0803 22.5401 24.682 21.9136 24.7391ZM20.3367 22.5966C20.8521 22.4384 21.1237 21.8122 20.9426 21.1975C20.7615 20.5828 19.4694 19.6478 19.4694 19.6478C19.4694 19.6478 18.8952 21.1556 19.0763 21.7694C19.2574 22.3841 19.8213 22.7539 20.3376 22.5957L20.3367 22.5966ZM20.9137 24.0796C20.8661 23.5326 20.3199 23.1342 19.6934 23.1913C19.067 23.2485 17.9093 24.3522 17.9093 24.3522C17.9093 24.3522 19.2397 25.2309 19.8661 25.1737C20.4926 25.1166 20.9613 24.6276 20.9137 24.0796ZM17.0083 21.3786C17.5293 21.7389 18.1959 21.6617 18.4975 21.2061C18.799 20.7515 18.6216 20.09 18.1016 19.7307C17.5806 19.3705 16 19.4801 16 19.4801C16 19.4801 16.4874 21.0193 17.0083 21.3786ZM27.6918 17.9999H24.9059L32.7306 35.4289H35.5165L27.6909 17.9999H27.6918ZM22.9835 29.4159H17.6703C18.2855 30.8083 19.2696 31.444 20.3647 31.7843L18.7085 35.4289H21.4412L22.9135 31.9701H24.7518C26.7843 31.9701 28.8616 32.2837 28.8616 32.2837C28.8616 32.2837 27.1587 29.4159 22.9826 29.4159H22.9835Z" fill="white"/>
</g>
<defs>
<filter id="filter0_d_2661_23803" x="0.765432" y="0.765432" width="49.7284" height="58.8889" filterUnits="userSpaceOnUse" color-interpolation-filters="sRGB">
<feFlood flood-opacity="0" result="BackgroundImageFix"/>
<feColorMatrix in="SourceAlpha" type="matrix" values="0 0 0 0 0 0 0 0 0 0 0 0 0 0 0 0 0 0 127 0" result="hardAlpha"/>
<feOffset/>
<feGaussianBlur stdDeviation="2.61728"/>
<feComposite in2="hardAlpha" operator="out"/>
<feColorMatrix type="matrix" values="0 0 0 0 0 0 0 0 0 0 0 0 0 0 0 0 0 0 0.25 0"/>
<feBlend mode="normal" in2="BackgroundImageFix" result="effect1_dropShadow_2661_23803"/>
<feBlend mode="normal" in="SourceGraphic" in2="effect1_dropShadow_2661_23803" result="shape"/>
</filter>
<clipPath id="clip0_2661_23803">
<rect width="32.716" height="32.716" fill="white" transform="translate(9.27173 9.92596)"/>
</clipPath>
</defs>
</svg>
