<svg width="107" height="95" viewBox="0 0 107 95" fill="none" xmlns="http://www.w3.org/2000/svg">
<path d="M40.9593 37.9751C40.038 34.8633 42.9607 27.2371 42.9607 27.2371C42.9607 27.2371 49.5433 31.9697 50.4595 35.0763C51.3809 38.1881 49.9988 41.357 47.373 42.157C44.7471 42.957 41.8756 41.0816 40.9542 37.9751H40.9593ZM69.5316 60.9939C67.1565 61.2069 62.7647 65.3732 62.7647 65.3732C62.7647 65.3732 67.8117 68.6876 70.1868 68.4746C72.5618 68.2616 74.3431 66.4122 74.1639 64.3498C73.9848 62.2874 71.9117 60.7861 69.5367 60.9991L69.5316 60.9939ZM11.7319 29.4086C14.3271 29.1748 16.2721 27.1592 16.0725 24.9046C15.8729 22.65 13.6105 21.0136 11.0153 21.2473C8.42016 21.4811 3.62399 26.0267 3.62399 26.0267C3.62399 26.0267 9.13677 29.6424 11.7319 29.4086ZM58.3781 51.1962C60.5586 50.5312 61.7103 47.8922 60.9425 45.3051C60.1747 42.718 54.7029 38.7855 54.7029 38.7855C54.7029 38.7855 52.2715 45.1285 53.0393 47.7156C53.8071 50.3027 56.1975 51.8612 58.3781 51.1962ZM68.3696 59.2847C70.0434 58.7756 70.9238 56.7548 70.3352 54.7703C69.7466 52.7859 65.5544 49.7728 65.5544 49.7728C65.5544 49.7728 63.6912 54.6353 64.2798 56.6145C64.8685 58.599 66.6958 59.7886 68.3696 59.2795V59.2847ZM57.8867 62.5835C60.7889 62.3238 62.9644 60.064 62.7443 57.5392C62.5242 55.0145 59.9904 53.1807 57.0882 53.4456C54.1859 53.7054 48.8164 58.7964 48.8164 58.7964C48.8164 58.7964 54.9844 62.8433 57.8867 62.5835ZM45.0184 45.061C41.5838 45.3727 35.2367 51.3884 35.2367 51.3884C35.2367 51.3884 42.5308 56.1782 45.9654 55.8665C49.4 55.5548 51.9695 52.8846 51.7085 49.9027C51.4474 46.9208 48.453 44.7493 45.0184 45.061ZM35.4158 33.0139C38.2413 32.1515 39.7309 28.7384 38.7378 25.3877C37.7448 22.037 30.6606 16.9407 30.6606 16.9407C30.6606 16.9407 27.5127 25.1591 28.5057 28.5047C29.4987 31.8554 32.5904 33.8711 35.421 33.0087L35.4158 33.0139ZM32.4214 36.7335C28.9868 37.0452 22.6397 43.0609 22.6397 43.0609C22.6397 43.0609 29.9338 47.8507 33.3684 47.539C36.803 47.2273 39.3726 44.5623 39.1115 41.5752C38.8505 38.5933 35.8561 36.4218 32.4214 36.7335ZM23.7761 25.0552C26.6016 24.1929 28.0911 20.7798 27.0981 17.429C26.105 14.0783 19.0209 8.98206 19.0209 8.98206C19.0209 8.98206 15.8729 17.2005 16.8659 20.546C17.8589 23.8968 20.9506 25.9124 23.7812 25.05L23.7761 25.0552ZM26.9394 33.1386C26.6783 30.1567 23.6839 27.9852 20.2493 28.2969C16.8147 28.6086 10.4676 34.6243 10.4676 34.6243C10.4676 34.6243 17.7617 39.4141 21.1963 39.1024C24.6309 38.7907 27.2004 36.1257 26.9394 33.1386ZM5.52813 18.4161C8.38433 20.3798 12.039 19.959 13.6924 17.4758C15.3457 14.9978 14.3731 11.3925 11.5221 9.43403C8.66585 7.47034 0 8.06775 0 8.06775C0 8.06775 2.67193 16.4576 5.52813 18.4161ZM64.1007 0H48.8267L91.726 95H107L64.0956 0H64.1007ZM38.2874 62.2251H9.15724C12.5304 69.8149 17.9255 73.2799 23.9296 75.1345L14.8492 95H29.8314L37.9035 76.1475H47.9821C59.1254 76.1475 70.5144 77.8567 70.5144 77.8567C70.5144 77.8567 61.178 62.2251 38.2823 62.2251H38.2874Z" fill="#708E7A" fill-opacity="0.6"/>
</svg>
