<svg width="32" height="32" viewBox="0 0 32 32" fill="none" xmlns="http://www.w3.org/2000/svg">
<g id="048-broccoli" clip-path="url(#clip0_1883_30025)">
<g id="Group">
<path id="Vector" d="M30.3839 12.2795C29.673 11.4045 28.735 10.7369 27.6872 10.3494C27.8583 6.78474 24.5523 3.87484 21.0399 4.48571C18.9353 0.476364 13.0412 0.477968 10.9378 4.48577C7.42507 3.87496 4.1194 6.78474 4.29044 10.3494C1.87812 11.209 0.165589 13.6541 0.195516 16.2223C0.186815 21.8411 7.13975 24.6013 10.9837 20.5449C12.1069 22.9637 12.7002 25.6477 12.7002 28.314V30.5201H19.2776V28.314C19.2776 25.6476 19.8709 22.9636 20.9941 20.5449C26.7092 26.1221 35.195 18.6738 30.3839 12.2795ZM17.4264 28.6689H14.5512V28.314C14.5512 25.8303 14.0834 23.3326 13.19 21.0099C13.7926 21.2284 14.421 21.3763 15.0632 21.449V22.5399H16.9144V21.449C17.5566 21.3763 18.1851 21.2284 18.7876 21.0099C17.8942 23.3326 17.4264 25.8303 17.4264 28.314V28.6689ZM25.5224 20.6309C23.8957 20.6309 22.4064 19.7393 21.6357 18.304L21.0818 17.2725L20.206 18.0495C17.8966 20.1692 14.081 20.169 11.7716 18.0496L10.8959 17.2725L10.3419 18.304C9.57126 19.7393 8.08197 20.6309 6.45521 20.6309C2.78838 20.6617 0.692357 16.2685 3.03057 13.4467C3.65662 12.6761 4.53165 12.1338 5.49448 11.9199L6.36648 11.7261L6.20382 10.8478C5.6388 8.01333 8.44917 5.53616 11.189 6.4442L12.0394 6.71477L12.3408 5.87491C13.563 2.47681 18.4159 2.47841 19.6369 5.87491L19.9384 6.71477L20.7888 6.4442C23.5295 5.53616 26.3387 8.01382 25.774 10.848L25.6114 11.7262L26.4834 11.9199C27.4462 12.1338 28.3211 12.6761 28.9472 13.4467C31.2855 16.2695 29.1886 20.6617 25.5224 20.6309Z" fill="#25472F"/>
<path id="Vector_2" d="M19.0789 8.84161V10.6927C20.1337 10.6927 20.9917 11.5508 20.9917 12.6056H22.8429C22.8429 10.5301 21.1544 8.84161 19.0789 8.84161Z" fill="#25472F"/>
<path id="Vector_3" d="M9.13556 12.6056H10.9867C10.9867 11.5508 11.8448 10.6927 12.8995 10.6927V8.84161C10.824 8.84161 9.13556 10.5301 9.13556 12.6056Z" fill="#25472F"/>
</g>
</g>
<defs>
<clipPath id="clip0_1883_30025">
<rect width="31.6098" height="31.6098" fill="white" transform="translate(0.195129 0.195129)"/>
</clipPath>
</defs>
</svg>
