<svg width="29" height="32" viewBox="0 0 29 32" fill="none" xmlns="http://www.w3.org/2000/svg">
<g id="ic:round-arrow-drop-down">
<path id="Vector" d="M17.6624 12.4997L12.8136 17.2615L17.6624 22.0234C17.7781 22.1371 17.8699 22.2719 17.9325 22.4204C17.9951 22.5689 18.0273 22.728 18.0273 22.8887C18.0273 23.0494 17.9951 23.2085 17.9325 23.3569C17.8699 23.5054 17.7781 23.6403 17.6624 23.7539C17.5467 23.8675 17.4094 23.9577 17.2582 24.0192C17.107 24.0806 16.945 24.1123 16.7814 24.1123C16.6177 24.1123 16.4557 24.0806 16.3046 24.0192C16.1534 23.9577 16.016 23.8675 15.9003 23.7539L10.1642 18.1207C10.0484 18.0071 9.95647 17.8722 9.89376 17.7238C9.83105 17.5753 9.79877 17.4161 9.79877 17.2554C9.79877 17.0947 9.83105 16.9355 9.89376 16.7871C9.95647 16.6386 10.0484 16.5037 10.1642 16.3902L15.9003 10.7569C16.016 10.6431 16.1533 10.5529 16.3045 10.4913C16.4556 10.4297 16.6177 10.398 16.7814 10.398C16.945 10.398 17.1071 10.4297 17.2583 10.4913C17.4095 10.5529 17.5468 10.6431 17.6624 10.7569C18.1373 11.2356 18.1498 12.021 17.6624 12.4997Z" fill="#25472F"/>
</g>
</svg>
