<svg width="16" height="18" viewBox="0 0 16 18" fill="none" xmlns="http://www.w3.org/2000/svg">
<path id="Vector" d="M0.926456 0C0.870786 0 0.816181 0.00530501 0.761409 0.0153809C0.266895 0.106352 -0.0755563 0.607079 0.0143553 1.10742L1.8733 11.4521C1.96846 11.9817 2.43372 12.375 2.96565 12.375H12.3863C12.8471 12.375 13.267 12.082 13.4287 11.6455L15.9305 4.89551C15.9773 4.7692 16 4.63489 16 4.5C16 3.88867 15.4923 3.375 14.8881 3.375H2.5943L2.22077 1.10962C2.11623 0.474977 1.56236 0 0.926456 0ZM2.41839 5.0625H14.0846L11.9998 10.6875H3.43039L2.41839 5.0625ZM3.70619 14.625C2.78507 14.625 2.03835 15.3805 2.03835 16.3125C2.03835 17.2445 2.78507 18 3.70619 18C4.62731 18 5.37403 17.2445 5.37403 16.3125C5.37403 15.3805 4.62731 14.625 3.70619 14.625ZM11.4894 14.625C10.5683 14.625 9.82161 15.3805 9.82161 16.3125C9.82161 17.2445 10.5683 18 11.4894 18C12.4106 18 13.1573 17.2445 13.1573 16.3125C13.1573 15.3805 12.4106 14.625 11.4894 14.625Z" fill="white"/>
</svg>
