<svg width="223" height="155" viewBox="0 0 223 155" fill="none" xmlns="http://www.w3.org/2000/svg">
<rect width="222" height="155" transform="translate(0.5)" fill="white"/>
<path d="M98.4593 50.9751C97.538 47.8633 100.461 40.2371 100.461 40.2371C100.461 40.2371 107.043 44.9697 107.96 48.0763C108.881 51.1881 107.499 54.357 104.873 55.157C102.247 55.957 99.3756 54.0816 98.4542 50.9751H98.4593ZM127.032 73.9939C124.657 74.2069 120.265 78.3732 120.265 78.3732C120.265 78.3732 125.312 81.6876 127.687 81.4746C130.062 81.2616 131.843 79.4122 131.664 77.3498C131.485 75.2874 129.412 73.7861 127.037 73.9991L127.032 73.9939ZM69.2319 42.4086C71.8271 42.1748 73.7721 40.1592 73.5725 37.9046C73.3729 35.65 71.1105 34.0136 68.5153 34.2473C65.9202 34.4811 61.124 39.0267 61.124 39.0267C61.124 39.0267 66.6368 42.6424 69.2319 42.4086ZM115.878 64.1962C118.059 63.5312 119.21 60.8922 118.442 58.3051C117.675 55.718 112.203 51.7855 112.203 51.7855C112.203 51.7855 109.772 58.1285 110.539 60.7156C111.307 63.3027 113.698 64.8612 115.878 64.1962ZM125.87 72.2847C127.543 71.7756 128.424 69.7548 127.835 67.7703C127.247 65.7859 123.054 62.7728 123.054 62.7728C123.054 62.7728 121.191 67.6353 121.78 69.6145C122.368 71.599 124.196 72.7886 125.87 72.2795V72.2847ZM115.387 75.5835C118.289 75.3238 120.464 73.064 120.244 70.5392C120.024 68.0145 117.49 66.1807 114.588 66.4456C111.686 66.7054 106.316 71.7964 106.316 71.7964C106.316 71.7964 112.484 75.8433 115.387 75.5835ZM102.518 58.061C99.0838 58.3727 92.7367 64.3884 92.7367 64.3884C92.7367 64.3884 100.031 69.1782 103.465 68.8665C106.9 68.5548 109.47 65.8846 109.208 62.9027C108.947 59.9208 105.953 57.7493 102.518 58.061ZM92.9158 46.0139C95.7413 45.1515 97.2309 41.7384 96.2378 38.3877C95.2448 35.037 88.1606 29.9407 88.1606 29.9407C88.1606 29.9407 85.0127 38.1591 86.0057 41.5047C86.9987 44.8554 90.0904 46.8711 92.921 46.0087L92.9158 46.0139ZM89.9214 49.7335C86.4868 50.0452 80.1397 56.0609 80.1397 56.0609C80.1397 56.0609 87.4338 60.8507 90.8684 60.539C94.303 60.2273 96.8726 57.5623 96.6115 54.5752C96.3505 51.5933 93.3561 49.4218 89.9214 49.7335ZM81.2761 38.0552C84.1016 37.1929 85.5911 33.7798 84.5981 30.429C83.605 27.0783 76.5209 21.9821 76.5209 21.9821C76.5209 21.9821 73.3729 30.2005 74.3659 33.546C75.3589 36.8968 78.4506 38.9124 81.2812 38.05L81.2761 38.0552ZM84.4394 46.1386C84.1783 43.1567 81.1839 40.9852 77.7493 41.2969C74.3147 41.6086 67.9676 47.6243 67.9676 47.6243C67.9676 47.6243 75.2617 52.4141 78.6963 52.1024C82.1309 51.7907 84.7004 49.1257 84.4394 46.1386ZM63.0281 31.4161C65.8843 33.3798 69.539 32.959 71.1924 30.4758C72.8457 27.9978 71.8731 24.3925 69.0221 22.434C66.1659 20.4703 57.5 21.0678 57.5 21.0678C57.5 21.0678 60.1719 29.4576 63.0281 31.4161ZM121.601 13H106.327L149.226 108H164.5L121.596 13H121.601ZM95.7874 75.2251H66.6572C70.0304 82.8149 75.4255 86.2799 81.4296 88.1345L72.3492 108H87.3314L95.4035 89.1475H105.482C116.625 89.1475 128.014 90.8567 128.014 90.8567C128.014 90.8567 118.678 75.2251 95.7823 75.2251H95.7874Z" fill="#708E7A" fill-opacity="0.5"/>
<path d="M35.6802 136H33.6568V120.435H35.9915C37.7704 120.435 39.1267 120.791 40.0606 121.503C41.0093 122.199 41.4836 123.155 41.4836 124.371C41.4836 125.127 41.2761 125.801 40.8611 126.394C40.4608 126.987 39.9272 127.447 39.2601 127.773V127.817C39.9865 128.04 40.5868 128.477 41.0612 129.129C41.5355 129.782 41.7727 130.545 41.7727 131.42C41.7727 134.473 39.7419 136 35.6802 136ZM36.7253 129.307H36.3918V133.421L36.5696 133.443C37.296 133.428 37.8889 133.228 38.3485 132.843C38.808 132.457 39.0378 131.938 39.0378 131.286C39.0378 130.678 38.8228 130.197 38.3929 129.841C37.9631 129.485 37.4072 129.307 36.7253 129.307ZM36.5474 122.992H36.3918V126.928H36.6141C37.1922 126.928 37.6962 126.743 38.1261 126.372C38.556 126.002 38.7709 125.512 38.7709 124.905C38.7709 124.297 38.5708 123.83 38.1706 123.504C37.7704 123.163 37.2293 122.992 36.5474 122.992ZM55.8089 125.994H58.8551L54.875 130.552L56.5427 132.531C56.8836 132.961 57.2616 133.287 57.6767 133.51C58.0917 133.717 58.492 133.754 58.8774 133.621V136C58.0176 136.222 57.1949 136.17 56.4093 135.844C55.6384 135.503 54.9714 134.91 54.4081 134.066L51.9622 130.775L55.8089 125.994ZM51.9177 136H49.3607V125.994H51.9177V136ZM61.2152 134.777C60.222 133.784 59.7254 132.524 59.7254 130.997C59.7254 129.47 60.222 128.218 61.2152 127.239C62.2084 126.246 63.5277 125.75 65.1731 125.75C66.8037 125.75 68.1156 126.246 69.1087 127.239C70.1167 128.218 70.6207 129.47 70.6207 130.997C70.6207 132.509 70.1167 133.769 69.1087 134.777C68.1007 135.755 66.7889 136.245 65.1731 136.245C63.5277 136.245 62.2084 135.755 61.2152 134.777ZM63.2386 128.951C62.7198 129.485 62.4604 130.167 62.4604 130.997C62.4604 131.827 62.7124 132.516 63.2164 133.065C63.7352 133.599 64.3874 133.865 65.1731 133.865C65.9736 133.865 66.6258 133.599 67.1298 133.065C67.6486 132.531 67.908 131.842 67.908 130.997C67.908 130.167 67.6486 129.485 67.1298 128.951C66.611 128.418 65.9587 128.151 65.1731 128.151C64.4023 128.151 63.7574 128.418 63.2386 128.951ZM75.3907 140.447H72.8337V125.994H75.3907V126.95C75.7168 126.594 76.1616 126.305 76.7248 126.083C77.2881 125.861 77.8737 125.75 78.4814 125.75C79.86 125.75 80.957 126.224 81.7723 127.173C82.6024 128.136 83.0174 129.359 83.0174 130.841C83.0174 132.398 82.5283 133.688 81.5499 134.71C80.5716 135.733 79.2967 136.245 77.7254 136.245C76.7174 136.245 75.9392 136.082 75.3907 135.755V140.447ZM77.681 128.151C76.7916 128.151 76.0281 128.514 75.3907 129.24V133.287C75.9985 133.673 76.7026 133.865 77.5031 133.865C78.348 133.865 79.0225 133.591 79.5265 133.043C80.0453 132.494 80.3047 131.783 80.3047 130.908C80.3047 130.078 80.0676 129.411 79.5932 128.907C79.1337 128.403 78.4963 128.151 77.681 128.151ZM88.7679 136.245C87.8933 136.245 87.0409 136.089 86.2108 135.778C85.3807 135.452 84.7803 135.051 84.4098 134.577L85.7216 132.976C86.0181 133.317 86.4406 133.606 86.989 133.843C87.5375 134.08 88.0563 134.199 88.5455 134.199C89.1978 134.199 89.7018 134.088 90.0575 133.865C90.4133 133.643 90.5912 133.347 90.5912 132.976C90.5912 132.635 90.4578 132.361 90.1909 132.153C89.9241 131.946 89.5535 131.842 89.0792 131.842H87.2114V130.13H88.968C89.3682 130.13 89.6869 130.019 89.9241 129.796C90.1761 129.559 90.3021 129.263 90.3021 128.907C90.3021 128.181 89.7166 127.817 88.5455 127.817C87.6265 127.817 86.7148 128.203 85.8106 128.974L84.7433 127.439C85.692 126.313 87.1225 125.75 89.0347 125.75C90.3243 125.75 91.3101 126.002 91.992 126.506C92.6887 126.995 93.037 127.691 93.037 128.596C93.037 129.085 92.874 129.53 92.5479 129.93C92.2218 130.33 91.7696 130.626 91.1915 130.819V130.864C91.8586 130.997 92.3774 131.279 92.748 131.709C93.1186 132.124 93.3039 132.628 93.3039 133.221C93.3039 134.154 92.8888 134.896 92.0587 135.444C91.2434 135.978 90.1465 136.245 88.7679 136.245ZM102.947 129.663L98.2775 136H95.7204V125.994H98.2775V132.331L102.947 125.994H105.504V136H102.947V129.663ZM117.853 136H115.295V132.176H110.915V136H108.358V125.994H110.915V129.774H115.295V125.994H117.853V136ZM128.541 133.198L129.274 134.999C128.281 135.83 127.006 136.245 125.45 136.245C123.849 136.245 122.545 135.763 121.537 134.799C120.558 133.851 120.069 132.583 120.069 130.997C120.069 129.515 120.551 128.27 121.514 127.262C122.478 126.254 123.76 125.75 125.361 125.75C126.68 125.75 127.8 126.187 128.719 127.061C129.638 127.936 130.097 129.048 130.097 130.397C130.097 130.99 130.045 131.449 129.942 131.775H122.715C122.819 132.502 123.138 133.072 123.671 133.487C124.22 133.902 124.902 134.11 125.717 134.11C126.829 134.11 127.77 133.806 128.541 133.198ZM125.25 127.884C123.797 127.884 122.923 128.61 122.626 130.063H127.54C127.555 129.426 127.347 128.907 126.918 128.507C126.502 128.092 125.947 127.884 125.25 127.884ZM146.252 136H143.695V128.396H139.426V136H136.869V125.994H146.252V136ZM155.831 125.994H158.744L154.808 136C154.097 137.734 153.459 138.905 152.896 139.513C152.348 140.136 151.695 140.447 150.939 140.447C150.228 140.447 149.509 140.188 148.782 139.669L149.605 137.734C149.991 137.972 150.339 138.09 150.65 138.09C151.258 138.09 151.769 137.571 152.184 136.534L152.407 136L147.782 125.994H150.85L153.185 131.464C153.215 131.538 153.378 132.02 153.674 132.909C153.763 132.361 153.882 131.872 154.03 131.442L155.831 125.994ZM167.468 132.642L168.669 134.51C167.824 135.666 166.497 136.245 164.689 136.245C163.073 136.245 161.761 135.763 160.753 134.799C159.76 133.851 159.263 132.583 159.263 130.997C159.263 129.5 159.752 128.255 160.731 127.262C161.709 126.254 162.947 125.75 164.444 125.75C166.223 125.75 167.564 126.202 168.469 127.106L167.268 129.129C166.586 128.477 165.756 128.151 164.777 128.151C164.036 128.151 163.384 128.418 162.821 128.951C162.272 129.455 161.998 130.137 161.998 130.997C161.998 131.857 162.28 132.554 162.843 133.087C163.436 133.606 164.118 133.865 164.889 133.865C165.882 133.865 166.742 133.458 167.468 132.642ZM172.771 128.551H169.481V125.994H178.597V128.551H175.328V136H172.771V128.551ZM180.99 134.777C179.997 133.784 179.501 132.524 179.501 130.997C179.501 129.47 179.997 128.218 180.99 127.239C181.984 126.246 183.303 125.75 184.948 125.75C186.579 125.75 187.891 126.246 188.884 127.239C189.892 128.218 190.396 129.47 190.396 130.997C190.396 132.509 189.892 133.769 188.884 134.777C187.876 135.755 186.564 136.245 184.948 136.245C183.303 136.245 181.984 135.755 180.99 134.777ZM183.014 128.951C182.495 129.485 182.236 130.167 182.236 130.997C182.236 131.827 182.488 132.516 182.992 133.065C183.51 133.599 184.163 133.865 184.948 133.865C185.749 133.865 186.401 133.599 186.905 133.065C187.424 132.531 187.683 131.842 187.683 130.997C187.683 130.167 187.424 129.485 186.905 128.951C186.386 128.418 185.734 128.151 184.948 128.151C184.178 128.151 183.533 128.418 183.014 128.951Z" fill="#25472F" fill-opacity="0.2"/>
</svg>
