<svg width="16" height="16" viewBox="0 0 16 16" fill="none" xmlns="http://www.w3.org/2000/svg">
<g id="material-symbols:download-done-rounded">
<path id="Vector" d="M5.87876 10.4792L13.1766 2.93452C13.3493 2.75595 13.5545 2.66666 13.7923 2.66666C14.0301 2.66666 14.2351 2.75595 14.4072 2.93452C14.58 3.11309 14.6663 3.325 14.6663 3.57024C14.6663 3.81547 14.58 4.02768 14.4072 4.20684L6.48331 12.3988C6.31059 12.5774 6.10907 12.6667 5.87876 12.6667C5.64846 12.6667 5.44694 12.5774 5.27421 12.3988L1.58214 8.58184C1.40941 8.40327 1.3265 8.19107 1.33341 7.94524C1.34032 7.6994 1.43042 7.4875 1.60373 7.30952C1.77646 7.13095 1.98172 7.04166 2.21951 7.04166C2.4573 7.04166 2.66227 7.13095 2.83442 7.30952L5.87876 10.4792Z" fill="white"/>
</g>
</svg>
