<svg width="30" height="31" viewBox="0 0 30 31" fill="none" xmlns="http://www.w3.org/2000/svg">
<g id="Frame 1948757302">
<g id="Vector 1210">
<path fill-rule="evenodd" clip-rule="evenodd" d="M0 10.01L15.3588 3.68398C15.7004 4.5 15.9004 5.5 16.9304 4.98C17.6004 4.5 17.2004 4 16.8272 3.07217L24.2004 0C24.6495 0.845526 25.1964 1.9773 25.6787 3.35104C28.6595 9.63975 29.5939 15.4479 29.0282 20.2734C28.4336 25.3454 26.9739 27.7856 24.6502 30.16L0 20.1639V10.01ZM14.4502 6.15L4.6002 10.2L8.5002 11.85C10.2002 10 13.2002 11.5 13.1902 13.76L23.2802 17.92C26.2002 11 24.7002 6 23.2802 2.5L19.2202 4.18C19.3002 6.8 16.2002 8 14.4502 6.15ZM24.6702 27.6L24.6802 19.46C25.9561 16.7894 26.6375 14.2685 26.8402 11.96C28.2002 19.5 27.2002 24 24.6702 27.6ZM22.9802 27.65V19.88L10.9005 14.9C11.2002 14 11.5402 13.52 10.8402 13.06C9.91577 12.64 9.6602 13.5 9.31019 14.24L1.7002 11.12V19L22.9802 27.65Z" fill="#25472F"/>
<path d="M22.2002 8.73C22.2002 8.73 23.126 8.76 23.2002 7.75C23.2002 7.75 23.1416 6.8 22.2002 6.8C22.2002 6.8 21.2744 6.86328 21.2744 7.75C21.3135 8.73 22.2002 8.73 22.2002 8.73Z" fill="#25472F"/>
<path d="M8.62598 18.9C8.62598 18.9 9.55176 18.93 9.62598 17.92C9.62598 17.92 9.56738 16.97 8.62598 16.97C8.62598 16.97 7.7002 17.0333 7.7002 17.92C7.73926 18.9 8.62598 18.9 8.62598 18.9Z" fill="#25472F"/>
<path d="M18.7002 24C18.7002 24 19.626 24.03 19.7002 23.02C19.7002 23.02 19.6416 22.07 18.7002 22.07C18.7002 22.07 17.7744 22.1333 17.7744 23.02C17.8135 24 18.7002 24 18.7002 24Z" fill="#25472F"/>
<path d="M18.8186 13.78C18.8186 13.78 19.7444 13.81 19.8186 12.8C19.8186 12.8 19.76 11.85 18.8186 11.85C18.8186 11.85 17.8928 11.9133 17.8928 12.8C17.9319 13.78 18.8186 13.78 18.8186 13.78Z" fill="#25472F"/>
</g>
</g>
</svg>
