<svg width="8" height="8" viewBox="0 0 8 8" fill="none" xmlns="http://www.w3.org/2000/svg">
<g id="multiply">
<path id="Vector" d="M4.46965 4.00006L6.56965 1.9034C6.63242 1.84063 6.66769 1.7555 6.66769 1.66673C6.66769 1.57796 6.63242 1.49283 6.56965 1.43006C6.50689 1.36729 6.42176 1.33203 6.33299 1.33203C6.24422 1.33203 6.15909 1.36729 6.09632 1.43006L3.99965 3.53006L1.90299 1.43006C1.84022 1.36729 1.75509 1.33203 1.66632 1.33203C1.57755 1.33203 1.49242 1.36729 1.42965 1.43006C1.36689 1.49283 1.33162 1.57796 1.33162 1.66673C1.33162 1.7555 1.36689 1.84063 1.42965 1.9034L3.52965 4.00006L1.42965 6.09673C1.39841 6.12772 1.37361 6.16458 1.35669 6.2052C1.33977 6.24582 1.33105 6.28939 1.33105 6.33339C1.33105 6.3774 1.33977 6.42097 1.35669 6.46159C1.37361 6.50221 1.39841 6.53907 1.42965 6.57006C1.46064 6.6013 1.49751 6.6261 1.53813 6.64302C1.57875 6.65995 1.62232 6.66866 1.66632 6.66866C1.71032 6.66866 1.75389 6.65995 1.79451 6.64302C1.83513 6.6261 1.872 6.6013 1.90299 6.57006L3.99965 4.47006L6.09632 6.57006C6.12731 6.6013 6.16418 6.6261 6.2048 6.64302C6.24542 6.65995 6.28898 6.66866 6.33299 6.66866C6.37699 6.66866 6.42056 6.65995 6.46118 6.64302C6.5018 6.6261 6.53867 6.6013 6.56965 6.57006C6.6009 6.53907 6.6257 6.50221 6.64262 6.46159C6.65954 6.42097 6.66825 6.3774 6.66825 6.33339C6.66825 6.28939 6.65954 6.24582 6.64262 6.2052C6.6257 6.16458 6.6009 6.12772 6.56965 6.09673L4.46965 4.00006Z" fill="white"/>
</g>
</svg>
