<svg width="36" height="36" viewBox="0 0 36 36" fill="none" xmlns="http://www.w3.org/2000/svg">
<path d="M19.4119 18.0002L25.7119 11.7102C25.9002 11.5219 26.006 11.2665 26.006 11.0002C26.006 10.7339 25.9002 10.4785 25.7119 10.2902C25.5236 10.1019 25.2682 9.99609 25.0019 9.99609C24.7356 9.99609 24.4802 10.1019 24.2919 10.2902L18.0019 16.5902L11.7119 10.2902C11.5236 10.1019 11.2682 9.99609 11.0019 9.99609C10.7356 9.99609 10.4802 10.1019 10.2919 10.2902C10.1036 10.4785 9.9978 10.7339 9.9978 11.0002C9.9978 11.2665 10.1036 11.5219 10.2919 11.7102L16.5919 18.0002L10.2919 24.2902C10.1982 24.3831 10.1238 24.4937 10.073 24.6156C10.0222 24.7375 9.99609 24.8682 9.99609 25.0002C9.99609 25.1322 10.0222 25.2629 10.073 25.3848C10.1238 25.5066 10.1982 25.6172 10.2919 25.7102C10.3849 25.8039 10.4955 25.8783 10.6173 25.9291C10.7392 25.9798 10.8699 26.006 11.0019 26.006C11.1339 26.006 11.2646 25.9798 11.3865 25.9291C11.5083 25.8783 11.6189 25.8039 11.7119 25.7102L18.0019 19.4102L24.2919 25.7102C24.3849 25.8039 24.4955 25.8783 24.6173 25.9291C24.7392 25.9798 24.8699 26.006 25.0019 26.006C25.1339 26.006 25.2646 25.9798 25.3865 25.9291C25.5083 25.8783 25.6189 25.8039 25.7119 25.7102C25.8056 25.6172 25.88 25.5066 25.9308 25.3848C25.9816 25.2629 26.0077 25.1322 26.0077 25.0002C26.0077 24.8682 25.9816 24.7375 25.9308 24.6156C25.88 24.4937 25.8056 24.3831 25.7119 24.2902L19.4119 18.0002Z" fill="#BDBDBD"/>
</svg>
