<svg width="16" height="16" viewBox="0 0 16 16" fill="none" xmlns="http://www.w3.org/2000/svg">
<path d="M5.33431 10.6662C5.79597 10.6662 6.24393 10.6075 6.67115 10.4973C6.69417 9.94303 6.82997 9.41792 7.0562 8.94429C6.58257 9.17052 6.05746 9.30632 5.50324 9.32934C5.39297 9.75656 5.33431 10.2045 5.33431 10.6662Z" fill="#25472F"/>
<path d="M10.6676 5.33285C10.206 5.33285 9.75802 5.3915 9.33081 5.50177C9.30778 6.056 9.17198 6.5811 8.94576 7.05473C9.41939 6.82851 9.94449 6.69271 10.4987 6.66968C10.609 6.24247 10.6676 5.79451 10.6676 5.33285Z" fill="#25472F"/>
<path fill-rule="evenodd" clip-rule="evenodd" d="M5.33431 -0.000488281C8.27983 -0.000488281 10.6676 2.38733 10.6676 5.33285C10.206 5.33285 9.75802 5.3915 9.33081 5.50177C9.33313 5.44575 9.33431 5.38944 9.33431 5.33285C9.33431 3.12371 7.54345 1.33285 5.33431 1.33285C3.12517 1.33285 1.33431 3.12371 1.33431 5.33285C1.33431 7.54198 3.12517 9.33285 5.33431 9.33285C5.3909 9.33285 5.44722 9.33167 5.50324 9.32934C5.39297 9.75656 5.33431 10.2045 5.33431 10.6662C2.38879 10.6662 0.000976562 8.27836 0.000976562 5.33285C0.000976562 2.38733 2.38879 -0.000488281 5.33431 -0.000488281ZM5.50324 9.32934C6.05746 9.30632 6.58257 9.17052 7.0562 8.94429C7.45063 8.1185 8.11996 7.44917 8.94576 7.05473C9.17198 6.5811 9.30778 6.056 9.33081 5.50177C7.4595 5.98478 5.98624 7.45803 5.50324 9.32934ZM5.33431 10.6662C5.79597 10.6662 6.24393 10.6075 6.67115 10.4973C6.66882 10.5533 6.66764 10.6096 6.66764 10.6662C6.66764 12.8753 8.4585 14.6662 10.6676 14.6662C12.8768 14.6662 14.6676 12.8753 14.6676 10.6662C14.6676 8.45704 12.8768 6.66618 10.6676 6.66618C10.6111 6.66618 10.5547 6.66735 10.4987 6.66968C10.609 6.24247 10.6676 5.79451 10.6676 5.33285C13.6132 5.33285 16.001 7.72066 16.001 10.6662C16.001 13.6117 13.6132 15.9995 10.6676 15.9995C7.72212 15.9995 5.33431 13.6117 5.33431 10.6662Z" fill="#25472F"/>
</svg>
