<svg width="60" height="61" viewBox="0 0 60 61" fill="none" xmlns="http://www.w3.org/2000/svg">
<path d="M55.3939 22.2821C55.0032 21.5961 54.4985 20.9775 53.9021 20.4561C54.1517 18.8793 53.8587 17.2557 53.0455 15.847C52.233 14.4397 50.9748 13.3746 49.4859 12.8021C49.1809 11.2359 48.3505 9.81148 47.1051 8.76655C45.8602 7.72186 44.3138 7.15135 42.7187 7.12265C41.8964 5.75526 40.6289 4.70061 39.1012 4.14464C37.574 3.5889 35.9257 3.58187 34.4172 4.10011C31.961 2.03428 28.0375 2.0344 25.5813 4.10011C24.0728 3.58163 22.4245 3.58878 20.8973 4.14464C19.3697 4.70061 18.1021 5.75526 17.2798 7.12265C15.685 7.15147 14.1383 7.72186 12.8935 8.76655C11.6481 9.81148 10.8177 11.236 10.5127 12.8021C9.02385 13.3748 7.76567 14.4397 6.95321 15.847C6.13993 17.2556 5.84689 18.8791 6.09658 20.4561C5.5003 20.9774 4.99564 21.5958 4.605 22.2816L7.77001 23.8377C8.07137 23.3753 8.48088 22.9836 8.96785 22.7038L10.252 21.9657L9.74222 20.575C9.38193 19.5918 9.47473 18.5092 9.99707 17.6045C10.5192 16.7001 11.4101 16.0783 12.4415 15.8986L13.9007 15.6443L13.8973 14.1631C13.8488 12.0201 15.9314 10.2729 18.0331 10.692L19.4913 10.9522L19.9948 9.55909C20.3506 8.57439 21.1176 7.8047 22.0993 7.44756C23.0807 7.09019 24.1628 7.18674 25.0681 7.71201L26.3495 8.45534L27.2991 7.31844C28.6394 5.64559 31.3587 5.64583 32.6989 7.31844L33.6484 8.45534L34.9298 7.71201C35.8353 7.18697 36.9174 7.09019 37.8988 7.44756C38.8803 7.80481 39.6474 8.57439 40.0033 9.55921L40.5068 10.9522L41.965 10.692C42.9955 10.5081 44.0453 10.7876 44.8454 11.459C45.6456 12.1304 46.1031 13.116 46.1007 14.163L46.0973 15.6443L47.5567 15.8986C49.6752 16.2234 51.0344 18.5781 50.2559 20.5748L49.746 21.9656L51.0304 22.7036C51.5177 22.9837 51.9275 23.3757 52.229 23.8387L55.3939 22.2821Z" fill="#5C8000"/>
<path d="M4.6065 38.7179C4.99715 39.4039 5.50192 40.0225 6.09832 40.5439C5.84863 42.1207 6.14167 43.7443 6.95484 45.153C7.76741 46.5603 9.02559 47.6254 10.5145 48.1979C10.8195 49.7641 11.6499 51.1885 12.8953 52.2335C14.1402 53.2782 15.6866 53.8487 17.2817 53.8774C18.104 55.2447 19.3715 56.2994 20.8992 56.8554C22.4264 57.4111 24.0746 57.4181 25.5832 56.8999C28.0393 58.9657 31.9629 58.9656 34.419 56.8999C35.9276 57.4184 37.5758 57.4112 39.103 56.8554C40.6307 56.2994 41.8983 55.2447 42.7206 53.8774C44.3154 53.8485 45.862 53.2782 47.1068 52.2335C48.3523 51.1885 49.1826 49.764 49.4876 48.1979C50.9765 47.6253 52.2347 46.5603 53.0472 45.153C53.8604 43.7444 54.1535 42.1209 53.9038 40.5439C54.5001 40.0226 55.0047 39.4042 55.3954 38.7184L52.2304 37.1623C51.929 37.6247 51.5195 38.0164 51.0325 38.2962L49.7483 39.0343L50.2581 40.425C50.6185 41.4082 50.5256 42.4908 50.0033 43.3955C49.4812 44.3 48.5902 44.9217 47.5589 45.1014L46.0996 45.3557L46.103 46.8369C46.1516 48.9799 44.069 50.7271 41.9673 50.308L40.5091 50.0478L40.0056 51.4409C39.6498 52.4256 38.8828 53.1953 37.9011 53.5524C36.9197 53.9098 35.8376 53.8133 34.9322 53.288L33.6509 52.5447L32.7013 53.6816C31.361 55.3544 28.6417 55.3542 27.3015 53.6816L26.352 52.5447L25.0706 53.288C24.1651 53.813 23.083 53.9098 22.1016 53.5524C21.1201 53.1952 20.3529 52.4256 19.9971 51.4408L19.4936 50.0478L18.0354 50.308C17.0049 50.492 15.9551 50.2124 15.155 49.541C14.3547 48.8696 13.8973 47.884 13.8997 46.837L13.903 45.3557L12.4437 45.1014C10.3251 44.7766 8.96595 42.4219 9.74443 40.4252L10.2544 39.0344L8.96994 38.2964C8.48262 38.0163 8.07288 37.6243 7.7714 37.1613L4.6065 38.7179Z" fill="#5C8000"/>
<path d="M7.77001 23.8377L4.605 22.2816C3.65944 23.6418 2.24231 27.1897 4.13827 30.5C3.07132 31.8407 1.67123 35.3613 4.6065 38.7179L7.7714 37.1613C5.17275 34.6379 6.95484 30.5 8.96785 30.033C6.95321 28.8326 6.79917 25.3276 7.77001 23.8377Z" fill="#5C8000"/>
<path d="M55.3939 22.2821L52.229 23.8387C53.0953 25.0581 54.0003 28.0042 50.69 30.033C52.0617 30.8371 54.2902 33.3886 52.2304 37.1623L55.3954 38.7184C57.2752 34.9767 56.1777 31.6804 55.3939 30.5C57.2566 27.4879 56.17 23.7664 55.3939 22.2821Z" fill="#5C8000"/>
<path d="M28.2422 12.9924H31.7573V16.5078H28.2422V12.9924Z" fill="#5C8000"/>
<path d="M18.8672 23.5393H22.3823V27.0547H18.8672V23.5393Z" fill="#5C8000"/>
<path d="M37.6157 16.5081H41.1308V20.0234H37.6157V16.5081Z" fill="#5C8000"/>
<path d="M31.7578 48.0073L28.2427 48.0073L28.2427 44.492L31.7578 44.492L31.7578 48.0073Z" fill="#5C8000"/>
<path d="M41.1328 37.4604L37.6177 37.4604L37.6177 33.9451L41.1328 33.9451L41.1328 37.4604Z" fill="#5C8000"/>
<path d="M22.385 44.4917L18.8699 44.4917L18.8699 40.9763L22.385 40.9763L22.385 44.4917Z" fill="#5C8000"/>
</svg>
