<svg width="24" height="25" viewBox="0 0 24 25" fill="none" xmlns="http://www.w3.org/2000/svg">
<g id="Iconex/Light/Edit 2">
<path id="Union" fill-rule="evenodd" clip-rule="evenodd" d="M13.5118 4.3054C14.5849 3.23064 16.3254 3.22999 17.3994 4.30393L19.8912 6.79578C20.956 7.86056 20.9671 9.58432 19.916 10.6627L10.6829 20.1359C9.97738 20.8598 9.00972 21.268 7.99928 21.268L5.24714 21.2678C3.96789 21.2678 2.94628 20.2014 3.00008 18.9223L3.11823 16.1133C3.15773 15.1743 3.54801 14.2843 4.21185 13.6194L13.5118 4.3054ZM16.3395 5.36539C15.8514 4.87723 15.0602 4.87753 14.5724 5.36606L12.9089 7.03215L17.1887 11.3119L18.8427 9.61493C19.3204 9.12476 19.3154 8.34123 18.8314 7.85724L16.3395 5.36539ZM5.27251 14.6801L11.849 8.09361L16.1416 12.3862L9.60952 19.0882C9.18621 19.5225 8.60561 19.7674 7.99935 19.7674L5.2472 19.7673C4.82079 19.7673 4.48025 19.4118 4.49818 18.9854L4.61634 16.1764C4.64004 15.613 4.8742 15.079 5.27251 14.6801ZM20.5138 21.1958C20.9279 21.1958 21.2636 20.8598 21.2636 20.4455C21.2636 20.0311 20.9279 19.6952 20.5138 19.6952H14.3921C13.9781 19.6952 13.6424 20.0311 13.6424 20.4455C13.6424 20.8598 13.9781 21.1958 14.3921 21.1958H20.5138Z" fill="#25472F"/>
</g>
</svg>
