<svg width="16" height="16" viewBox="0 0 16 16" fill="none" xmlns="http://www.w3.org/2000/svg">
<g id="remove_red_eye_24px">
<path id="icon/image/remove_red_eye_24px" fill-rule="evenodd" clip-rule="evenodd" d="M8.0013 3C4.66797 3 1.8213 5.07333 0.667969 8C1.8213 10.9267 4.66797 13 8.0013 13C11.3346 13 14.1813 10.9267 15.3346 8C14.1813 5.07333 11.3346 3 8.0013 3ZM8.0013 11.3327C6.1613 11.3327 4.66797 9.83935 4.66797 7.99935C4.66797 6.15935 6.1613 4.66602 8.0013 4.66602C9.8413 4.66602 11.3346 6.15935 11.3346 7.99935C11.3346 9.83935 9.8413 11.3327 8.0013 11.3327ZM6 8C6 6.89333 6.89333 6 8 6C9.10667 6 10 6.89333 10 8C10 9.10667 9.10667 10 8 10C6.89333 10 6 9.10667 6 8Z" fill="#929292"/>
</g>
</svg>
