<svg width="16" height="16" viewBox="0 0 16 16" fill="none" xmlns="http://www.w3.org/2000/svg">
<g clip-path="url(#clip0_3333_91872)">
<path d="M13.3337 9.99933C13.3337 12.8356 11.5883 14.0803 10.2395 14.5C9.95191 14.5895 9.76289 14.2542 9.93493 14.0069C10.5219 13.1635 11.2003 11.8766 11.2003 10.666C11.2003 9.36559 10.1043 7.83032 9.24841 6.88339C9.05273 6.66691 8.71143 6.81015 8.70076 7.10177C8.66541 8.0679 8.51295 9.36051 7.85554 10.3736C7.74972 10.5366 7.5251 10.5501 7.40453 10.3977C7.19912 10.1379 6.99371 9.81697 6.7883 9.56346C6.67766 9.4269 6.47769 9.42502 6.35007 9.54586C5.85249 10.017 5.15588 10.7517 5.15588 11.666C5.15588 12.3255 5.47018 13.1464 5.79417 13.782C5.9413 14.0707 5.66835 14.4093 5.38794 14.247C4.16405 13.5385 2.66699 12.0706 2.66699 9.99933C2.66699 7.90169 5.54052 4.99587 6.63769 2.2506C6.81082 1.8174 7.34438 1.61385 7.71549 1.89654C9.96295 3.60858 13.3337 6.91807 13.3337 9.99933Z" stroke="#DD9F00" stroke-width="1.5"/>
</g>
<defs>
<clipPath id="clip0_3333_91872">
<rect width="16" height="16" fill="white" transform="translate(0 -0.000488281)"/>
</clipPath>
</defs>
</svg>
