<svg width="16" height="16" viewBox="0 0 16 16" fill="none" xmlns="http://www.w3.org/2000/svg">
<g id="Linear / Nature, Travel / Flame">
<path id="Vector" d="M13.3337 9.99982C13.3337 12.8361 11.5883 14.0808 10.2395 14.5005C9.95191 14.59 9.76289 14.2547 9.93493 14.0074C10.5219 13.164 11.2003 11.8771 11.2003 10.6665C11.2003 9.36608 10.1043 7.83081 9.24841 6.88388C9.05273 6.66739 8.71143 6.81064 8.70076 7.10226C8.66541 8.06839 8.51295 9.361 7.85554 10.374C7.74972 10.5371 7.5251 10.5506 7.40453 10.3981C7.19912 10.1384 6.99371 9.81746 6.7883 9.56394C6.67766 9.42739 6.47769 9.42551 6.35007 9.54635C5.85249 10.0175 5.15588 10.7522 5.15588 11.6665C5.15588 12.326 5.47018 13.1469 5.79417 13.7825C5.9413 14.0712 5.66835 14.4098 5.38794 14.2475C4.16405 13.539 2.66699 12.0711 2.66699 9.99982C2.66699 7.90218 5.54052 4.99636 6.63769 2.25109C6.81082 1.81789 7.34438 1.61434 7.71549 1.89703C9.96295 3.60907 13.3337 6.91856 13.3337 9.99982Z" stroke="#93C200" stroke-width="1.5"/>
</g>
</svg>
