<svg width="15" height="16" viewBox="0 0 15 16" fill="none" xmlns="http://www.w3.org/2000/svg">
<g id="openmoji:pot-of-food">
<path id="Vector" d="M1.45703 5.73672L2.91536 7.19505M6.04932 2.13359C6.06916 2.37593 6.17393 2.60347 6.34516 2.77609C6.54044 2.97144 6.65014 3.23634 6.65014 3.51255C6.65014 3.78876 6.54044 4.05367 6.34516 4.24901C6.14987 4.44435 6.04017 4.70926 6.04017 4.98547C6.04017 5.26168 6.14987 5.52659 6.34516 5.72193C6.54044 5.91727 6.65014 6.18217 6.65014 6.45839C6.65014 6.7346 6.54044 6.9995 6.34516 7.19484M7.20078 1.96484C7.17995 2.25609 7.2762 2.55359 7.4987 2.77609C7.69398 2.97144 7.80368 3.23634 7.80368 3.51255C7.80368 3.78876 7.69398 4.05367 7.4987 4.24901C7.30341 4.44435 7.19371 4.70926 7.19371 4.98547C7.19371 5.26168 7.30341 5.52659 7.4987 5.72193C7.69398 5.91727 7.80368 6.18217 7.80368 6.45839C7.80368 6.7346 7.69398 6.9995 7.4987 7.19484M8.33411 2.0163C8.33035 2.15688 8.35527 2.29675 8.40735 2.42738C8.45943 2.55802 8.53758 2.67666 8.63703 2.77609C8.83231 2.97144 8.94202 3.23634 8.94202 3.51255C8.94202 3.78876 8.83231 4.05367 8.63703 4.24901C8.44175 4.44435 8.33204 4.70926 8.33204 4.98547C8.33204 5.26168 8.44175 5.52659 8.63703 5.72193C8.83231 5.91727 8.94202 6.18217 8.94202 6.45839C8.94202 6.7346 8.83231 6.9995 8.63703 7.19484M1.45703 7.99901C1.45703 11.3359 4.16182 14.0407 7.4987 14.0407C10.8356 14.0407 13.5404 11.3359 13.5404 7.99901H1.45703Z" stroke="#A9AEB2" stroke-width="0.875" stroke-miterlimit="10" stroke-linecap="round" stroke-linejoin="round"/>
</g>
</svg>
