<svg width="20" height="20" viewBox="0 0 20 20" fill="none" xmlns="http://www.w3.org/2000/svg">
<g id="ph:map-pin">
<path id="Vector" d="M10 4.85718C9.3707 4.85718 8.75552 5.0457 8.23228 5.39889C7.70903 5.75209 7.30121 6.25409 7.06038 6.84143C6.81956 7.42877 6.75655 8.07507 6.87932 8.69858C7.00209 9.3221 7.30513 9.89483 7.75011 10.3444C8.1951 10.7939 8.76205 11.1 9.37926 11.2241C9.99647 11.3481 10.6362 11.2844 11.2176 11.0411C11.799 10.7979 12.296 10.3859 12.6456 9.85728C12.9952 9.32869 13.1818 8.70723 13.1818 8.0715C13.1818 7.21901 12.8466 6.40143 12.2499 5.79863C11.6532 5.19583 10.8439 4.85718 10 4.85718ZM10 10.0001C9.62242 10.0001 9.25331 9.88698 8.93937 9.67506C8.62542 9.46315 8.38072 9.16194 8.23623 8.80954C8.09174 8.45714 8.05393 8.06936 8.12759 7.69525C8.20125 7.32114 8.38308 6.9775 8.65007 6.70778C8.91706 6.43806 9.25723 6.25438 9.62755 6.17997C9.99788 6.10555 10.3817 6.14374 10.7306 6.28971C11.0794 6.43568 11.3776 6.68288 11.5874 7.00003C11.7971 7.31719 11.9091 7.69006 11.9091 8.0715C11.9091 8.58299 11.708 9.07354 11.3499 9.43522C10.9919 9.7969 10.5063 10.0001 10 10.0001ZM10 1C8.14413 1.00213 6.36488 1.74784 5.05258 3.07354C3.74028 4.39925 3.00211 6.19667 3 8.0715C3 10.5947 4.1542 13.2691 6.34091 15.806C7.32347 16.9523 8.42934 17.9846 9.63807 18.8837C9.74507 18.9594 9.87254 19 10.0032 19C10.1338 19 10.2613 18.9594 10.3683 18.8837C11.5748 17.9842 12.6785 16.9519 13.6591 15.806C15.8426 13.2691 17 10.5947 17 8.0715C16.9979 6.19667 16.2597 4.39925 14.9474 3.07354C13.6351 1.74784 11.8559 1.00213 10 1ZM10 17.5537C8.68511 16.5091 4.27273 12.672 4.27273 8.0715C4.27273 6.53702 4.87613 5.06538 5.95021 3.98034C7.02428 2.8953 8.48103 2.28573 10 2.28573C11.519 2.28573 12.9757 2.8953 14.0498 3.98034C15.1239 5.06538 15.7273 6.53702 15.7273 8.0715C15.7273 12.6704 11.3149 16.5091 10 17.5537Z" fill="#93C200"/>
</g>
</svg>
