<svg width="123" height="35" viewBox="0 0 123 35" fill="none" xmlns="http://www.w3.org/2000/svg">
<g id="Theme=Outline White, Store=Google Play" clip-path="url(#clip0_2057_20039)">
<g id="Group">
<path id="Vector" d="M1 4.66667C1 2.67981 2.68995 1 4.86166 1H118.138C120.31 1 122 2.6798 122 4.66667V30.3333C122 32.3203 120.31 34 118.138 34H4.86166C2.68994 34 1 32.3203 1 30.3333V4.66667Z" stroke="#707378" stroke-width="2"/>
</g>
<path id="Vector_2" fill-rule="evenodd" clip-rule="evenodd" d="M0 30.3333V4.66667C0 2.08934 2.17664 0 4.86166 0H118.138C120.823 0 123 2.08934 123 4.66667V30.3333C123 32.9107 120.823 35 118.138 35H4.86166C2.17664 35 0 32.9107 0 30.3333ZM0.729249 30.3333V4.66667C0.729249 2.47595 2.5794 0.7 4.86166 0.7H118.138C120.421 0.7 122.271 2.47595 122.271 4.66667V30.3333C122.271 32.5241 120.421 34.3 118.138 34.3H4.86166C2.5794 34.3 0.729249 32.5241 0.729249 30.3333Z" fill="white"/>
<path id="Vector_3" d="M62.3218 19.0154C60.1329 19.0154 58.3243 20.6562 58.3243 22.906C58.3243 25.1375 60.1139 26.7967 62.3218 26.7967C64.5297 26.7967 66.3191 25.1557 66.3191 22.906C66.3191 20.6562 64.5297 19.0154 62.3218 19.0154ZM62.3218 25.2485C61.1222 25.2485 60.076 24.2709 60.076 22.8887C60.076 21.4873 61.1229 20.5288 62.3218 20.5288C63.5205 20.5288 64.5674 21.4873 64.5674 22.8887C64.5674 24.2709 63.5205 25.2485 62.3218 25.2485ZM53.6226 19.0154C51.4147 19.0154 49.6251 20.6562 49.6251 22.906C49.6251 25.1375 51.4147 26.7967 53.6226 26.7967C55.8305 26.7967 57.6201 25.1557 57.6201 22.906C57.6201 20.6562 55.8305 19.0154 53.6224 19.0154H53.6226ZM53.6226 25.2485C52.423 25.2485 51.377 24.2709 51.377 22.8887C51.377 21.4873 52.424 20.5288 53.6226 20.5288C54.8222 20.5288 55.8685 21.4873 55.8685 22.8887C55.8685 24.2709 54.8402 25.2485 53.6226 25.2485ZM43.2865 20.2141V21.8549H47.3217C47.2069 22.7768 46.8843 23.4591 46.4081 23.9204C45.8182 24.4918 44.9044 25.119 43.2865 25.119C40.7924 25.119 38.8706 23.1646 38.8706 20.7489C38.8706 18.3332 40.7934 16.3418 43.2865 16.3418C44.6375 16.3418 45.6089 16.8583 46.3323 17.5223L47.5309 16.3602C46.5217 15.4201 45.1706 14.7012 43.2865 14.7012C39.8787 14.7012 37.0234 17.4113 37.0234 20.7122C37.0234 24.0133 39.8787 26.7234 43.2865 26.7234C45.1327 26.7234 46.5037 26.1336 47.6075 25.0266C48.7306 23.9388 49.0733 22.4079 49.0733 21.1727C49.0733 20.7856 49.0354 20.4352 48.9778 20.14L43.2865 20.2141ZM85.5827 21.4862C85.2589 20.6195 84.2316 19.0154 82.1749 19.0154C80.1187 19.0154 78.4249 20.5829 78.4249 22.906C78.4249 25.0815 80.1187 26.7967 82.3655 26.7967C84.1927 26.7967 85.2399 25.7089 85.6775 25.0815L84.3264 24.1964C83.8692 24.8423 83.2603 25.2658 82.3655 25.2658C81.4707 25.2658 80.843 24.8787 80.4427 24.0856L85.7533 21.9284L85.5827 21.4862ZM80.1765 22.796C80.1386 21.3019 81.3761 20.5278 82.2507 20.5278C82.9554 20.5278 83.5264 20.8597 83.7355 21.3578L80.1765 22.796ZM75.8555 26.5389H77.6069V15.1431H75.8555V26.5389ZM73.0007 19.8822H72.9438C72.5444 19.4208 71.8021 19.0154 70.8497 19.0154C68.8508 19.0154 67.0425 20.7305 67.0425 22.906C67.0425 25.0815 68.8697 26.7785 70.8497 26.7785C71.8011 26.7785 72.5435 26.3727 72.9438 25.8932H73.0007V26.4462C73.0007 27.9405 72.1818 28.7327 70.8686 28.7327C69.8025 28.7327 69.1359 27.9769 68.8697 27.3497L67.3476 27.9769C67.7846 29.0096 68.9466 30.2818 70.8686 30.2818C72.9241 30.2818 74.6566 29.1016 74.6566 26.2437V19.2548H73.0007V19.8822ZM71.0021 25.2485C69.8025 25.2485 68.7941 24.2709 68.7941 22.907C68.7941 21.5432 69.8034 20.547 71.0021 20.547C72.1827 20.547 73.1341 21.5432 73.1341 22.907C73.1334 24.2524 72.1818 25.2485 71.0021 25.2485ZM93.7488 15.1433H89.5612V26.5389H91.3126V22.2236H93.7488C95.6908 22.2236 97.5939 20.8587 97.5939 18.6834C97.5939 16.508 95.6908 15.1431 93.7488 15.1431V15.1433ZM93.8055 20.6389H91.3306V16.7289H93.8055C95.0999 16.7289 95.8612 17.78 95.8612 18.6833C95.843 19.5684 95.1008 20.6389 93.8055 20.6389ZM104.58 18.997C103.324 18.997 102.01 19.5318 101.477 20.7489L103.02 21.3762C103.363 20.7489 103.971 20.5462 104.619 20.5462C105.533 20.5462 106.446 21.0808 106.465 22.0209V22.1319C106.141 21.9476 105.476 21.6889 104.638 21.6889C102.963 21.6889 101.268 22.5925 101.268 24.2524C101.268 25.7831 102.639 26.7601 104.162 26.7601C105.342 26.7601 105.989 26.2437 106.389 25.6354H106.446V26.5207H108.139V22.1501C108.12 20.1406 106.579 18.9968 104.58 18.9968V18.997ZM104.371 25.2301C103.8 25.2301 103 24.9531 103 24.2716C103 23.3865 103.989 23.0546 104.846 23.0546C105.607 23.0546 105.969 23.2206 106.446 23.4416C106.312 24.4928 105.379 25.2301 104.371 25.2301ZM114.25 19.2558L112.251 24.1789H112.194L110.12 19.2557H108.236L111.357 26.1518L109.587 30.0057H111.414L116.191 19.2557H114.25L114.25 19.2558ZM98.565 26.5389H100.317V15.1431H98.565V26.5389Z" fill="#707378"/>
<path id="Vector_4" d="M42.317 9.80107V11.4932H41.5887V10.5001H38.24V11.4932H37.5117V9.80107H38.0562C38.2378 9.55716 38.3717 9.20653 38.4578 8.7492C38.5441 8.2875 38.5871 7.78663 38.5871 7.24653V5.82227H41.7793V9.80107H42.317ZM41.017 9.80107V6.52133H39.3426V7.37067C39.3426 7.8585 39.3018 8.31147 39.2201 8.7296C39.143 9.14773 39.0252 9.5049 38.8662 9.80107H41.017Z" fill="#707378"/>
<path id="Vector_5" d="M45.408 10.6037C44.9359 10.6037 44.5071 10.497 44.1216 10.2836C43.7358 10.0658 43.4317 9.76963 43.2093 9.39506C42.9915 9.02049 42.8828 8.60889 42.8828 8.16026C42.8828 7.71163 42.9915 7.30223 43.2093 6.932C43.4317 6.55743 43.7358 6.26123 44.1216 6.04346C44.5071 5.82569 44.9359 5.7168 45.408 5.7168C45.8798 5.7168 46.3064 5.82569 46.6875 6.04346C47.0731 6.26123 47.3772 6.55743 47.5994 6.932C47.8218 7.30223 47.9331 7.71163 47.9331 8.16026C47.9331 8.60889 47.8218 9.02049 47.5994 9.39506C47.3815 9.76963 47.0799 10.0658 46.6944 10.2836C46.3086 10.497 45.8798 10.6037 45.408 10.6037ZM45.408 9.90466C45.73 9.90466 46.0249 9.83063 46.2928 9.68253C46.5604 9.53443 46.7714 9.32973 46.9258 9.0684C47.0799 8.8027 47.1569 8.5 47.1569 8.16026C47.1569 7.82053 47.0799 7.52 46.9258 7.25866C46.7714 6.99297 46.5604 6.78609 46.2928 6.638C46.0249 6.4899 45.73 6.41586 45.408 6.41586C45.0856 6.41586 44.7908 6.4899 44.5229 6.638C44.2553 6.78609 44.0421 6.99297 43.8831 7.25866C43.729 7.52 43.6517 7.82053 43.6517 8.16026C43.6517 8.5 43.729 8.8027 43.8831 9.0684C44.0421 9.32973 44.2553 9.53443 44.5229 9.68253C44.7908 9.83063 45.0856 9.90466 45.408 9.90466Z" fill="#707378"/>
<path id="Vector_6" d="M51.0378 10.6037C50.5657 10.6037 50.1347 10.497 49.7445 10.2836C49.3542 10.0702 49.0479 9.77617 48.8257 9.4016C48.6033 9.02703 48.4922 8.61323 48.4922 8.16026C48.4922 7.70729 48.6033 7.2935 48.8257 6.91893C49.0479 6.54436 49.3542 6.25036 49.7445 6.03693C50.1347 5.8235 50.5657 5.7168 51.0378 5.7168C51.4053 5.7168 51.7388 5.78213 52.0383 5.9128C52.3421 6.04346 52.61 6.23293 52.8414 6.4812L52.2969 6.98426C52.129 6.79263 51.943 6.65106 51.7388 6.5596C51.5346 6.46377 51.3008 6.41586 51.0378 6.41586C50.711 6.41586 50.4116 6.48773 50.1393 6.63146C49.8714 6.7752 49.6583 6.9799 49.4995 7.2456C49.3405 7.50693 49.2613 7.81183 49.2613 8.16026C49.2613 8.5087 49.3405 8.81577 49.4995 9.08146C49.6583 9.3428 49.8714 9.54533 50.1393 9.68906C50.4116 9.8328 50.711 9.90466 51.0378 9.90466C51.5823 9.90466 52.0451 9.68689 52.4262 9.25133L52.9776 9.76093C52.7415 10.0266 52.4578 10.2335 52.1268 10.3816C51.7954 10.5297 51.4325 10.6037 51.0378 10.6037Z" fill="#707378"/>
<path id="Vector_7" d="M54.8163 6.52133H53.4551V5.82227H56.9399V6.52133H55.5786V10.5001H54.8163V6.52133Z" fill="#707378"/>
<path id="Vector_8" d="M58.2008 10.6047C58.0328 10.6047 57.8899 10.5764 57.772 10.5197V9.8076C57.9218 9.886 58.0579 9.9252 58.1804 9.9252C58.3029 9.9252 58.4004 9.90343 58.4731 9.85987C58.5457 9.81196 58.6114 9.72484 58.6704 9.59853L58.8406 9.2588L57.2207 5.82227H58.0715L59.2081 8.416H59.249L60.3925 5.82227H61.2432L59.3783 9.75533C59.2422 10.0472 59.0766 10.2628 58.8814 10.4021C58.6909 10.5372 58.4641 10.6047 58.2008 10.6047Z" fill="#707378"/>
<path id="Vector_9" d="M61.9043 5.82227H65.5321V10.5001H64.7698V6.52133H62.6666V10.5001H61.9043V5.82227Z" fill="#707378"/>
<path id="Vector_10" d="M66.6445 5.82227H67.4068V7.76267H69.6665V5.82227H70.422V10.5001H69.6665V8.4552H67.4068V10.5001H66.6445V5.82227Z" fill="#707378"/>
<path id="Vector_11" d="M73.7498 10.6037C73.2779 10.6037 72.8491 10.497 72.4634 10.2836C72.0778 10.0658 71.7737 9.76963 71.5513 9.39506C71.3335 9.02049 71.2246 8.60889 71.2246 8.16026C71.2246 7.71163 71.3335 7.30223 71.5513 6.932C71.7737 6.55743 72.0778 6.26123 72.4634 6.04346C72.8491 5.82569 73.2779 5.7168 73.7498 5.7168C74.2218 5.7168 74.6482 5.82569 75.0293 6.04346C75.4151 6.26123 75.7192 6.55743 75.9414 6.932C76.1638 7.30223 76.2749 7.71163 76.2749 8.16026C76.2749 8.60889 76.1638 9.02049 75.9414 9.39506C75.7236 9.76963 75.4219 10.0658 75.0362 10.2836C74.6506 10.497 74.2218 10.6037 73.7498 10.6037ZM73.7498 9.90466C74.0721 9.90466 74.3669 9.83063 74.6346 9.68253C74.9025 9.53443 75.1135 9.32973 75.2676 9.0684C75.4219 8.8027 75.499 8.5 75.499 8.16026C75.499 7.82053 75.4219 7.52 75.2676 7.25866C75.1135 6.99297 74.9025 6.78609 74.6346 6.638C74.3669 6.4899 74.0721 6.41586 73.7498 6.41586C73.4277 6.41586 73.1328 6.4899 72.8649 6.638C72.5973 6.78609 72.3841 6.99297 72.2251 7.25866C72.071 7.52 71.9937 7.82053 71.9937 8.16026C71.9937 8.5 72.071 8.8027 72.2251 9.0684C72.3841 9.32973 72.5973 9.53443 72.8649 9.68253C73.1328 9.83063 73.4277 9.90466 73.7498 9.90466Z" fill="#707378"/>
<path id="Vector_12" d="M78.7402 5.82227H80.5711C80.8298 5.82227 81.068 5.8767 81.2858 5.9856C81.5082 6.0945 81.6852 6.24476 81.8167 6.4364C81.9484 6.62804 82.0141 6.8393 82.0141 7.07013C82.0141 7.30097 81.9528 7.50133 81.8303 7.6712C81.7124 7.84107 81.5559 7.96956 81.3607 8.05667V8.09587C81.6057 8.17863 81.8031 8.31583 81.9528 8.50747C82.1072 8.6991 82.1842 8.92343 82.1842 9.1804C82.1842 9.43737 82.114 9.66604 81.9732 9.8664C81.8371 10.0668 81.6512 10.2236 81.4151 10.3368C81.1837 10.4457 80.9297 10.5001 80.6528 10.5001H78.7402V5.82227ZM80.5371 7.78227C80.7549 7.78227 80.9297 7.71693 81.0612 7.58627C81.1973 7.4556 81.2654 7.30533 81.2654 7.13547C81.2654 6.9656 81.1998 6.8175 81.068 6.6912C80.9411 6.56053 80.7731 6.4952 80.5643 6.4952H79.5025V7.78227H80.5371ZM80.6528 9.82067C80.8842 9.82067 81.068 9.75097 81.2041 9.6116C81.3449 9.47223 81.4151 9.31107 81.4151 9.12813C81.4151 8.94084 81.3427 8.7797 81.1973 8.64467C81.0568 8.5053 80.8662 8.4356 80.6256 8.4356H79.5025V9.82067H80.6528Z" fill="#707378"/>
<path id="Vector_13" fill-rule="evenodd" clip-rule="evenodd" d="M26.2742 21.0721L22.6352 17.5449L26.2713 14.0005C28.8684 15.3877 30.8626 16.4476 31.2457 16.642C32.4832 17.2867 31.8544 18.1167 31.2457 18.4305C31.114 18.4939 30.016 19.0787 28.3868 19.9465L28.3854 19.9472C28.1231 20.0869 27.8469 20.234 27.5591 20.3875C27.1529 20.604 26.7229 20.8332 26.2742 21.0721ZM25.6115 21.4247L22.1234 18.0437L10.4675 29.4059C10.608 29.3649 10.757 29.3028 10.9162 29.2181C11.0355 29.1549 11.3255 29.0013 11.7518 28.7755L11.7748 28.7633L11.7772 28.7622C14.1762 27.4921 20.7631 24.005 25.6115 21.4247ZM9.51519 29.3364C9.1732 29.1131 8.99414 28.646 8.99414 28.0559V7.12613C8.99414 6.47371 9.23149 6.07226 9.56018 5.86646L21.6103 17.5463L9.51519 29.3364ZM10.4523 5.73633L22.122 17.0475L25.5967 13.6603C23.4421 12.5213 11.6942 6.3117 10.916 5.91058C10.7682 5.82541 10.6107 5.76811 10.4523 5.73633Z" fill="#707378"/>
</g>
<defs>
<clipPath id="clip0_2057_20039">
<rect width="123" height="35" fill="white"/>
</clipPath>
</defs>
</svg>
