<svg width="24" height="25" viewBox="0 0 24 25" fill="none" xmlns="http://www.w3.org/2000/svg">
<g id="Info">
<path id="Vector" d="M12 21.5C16.9706 21.5 21 17.4706 21 12.5C21 7.52944 16.9706 3.5 12 3.5C7.02944 3.5 3 7.52944 3 12.5C3 17.4706 7.02944 21.5 12 21.5Z" stroke="#25472F" stroke-width="1.5" stroke-linecap="round" stroke-linejoin="round"/>
<path id="Vector_2" d="M11.25 11.75H12.0001L12 17H12.75" stroke="#25472F" stroke-width="1.5" stroke-linecap="round" stroke-linejoin="round"/>
<path id="Vector_3" d="M12 9.3125C12.5178 9.3125 12.9375 8.89277 12.9375 8.375C12.9375 7.85723 12.5178 7.4375 12 7.4375C11.4822 7.4375 11.0625 7.85723 11.0625 8.375C11.0625 8.89277 11.4822 9.3125 12 9.3125Z" fill="#25472F"/>
</g>
</svg>
