<svg width="670" height="44" viewBox="0 0 670 44" fill="none" xmlns="http://www.w3.org/2000/svg">
<path fill-rule="evenodd" clip-rule="evenodd" d="M22 0H44L0 44V22L22 0ZM22 44H44L88 0H66L22 44ZM88 44H66L110 0H132L88 44ZM110 44H132L176 0H154L110 44ZM176 44H154L198 0H220L176 44Z" fill="#F5F7F9"/>
<path d="M198 44H220L230 34V12L198 44Z" fill="#F5F7F9"/>
<path d="M22 0H0V22L22 0Z" fill="#D7E6B8"/>
<path d="M66 0H44L0 44H22L66 0Z" fill="#D7E6B8"/>
<path d="M110 0H88L44 44H66L110 0Z" fill="#D7E6B8"/>
<path d="M154 0H132L88 44H110L154 0Z" fill="#D7E6B8"/>
<path d="M198 0H176L132 44H154L198 0Z" fill="#D7E6B8"/>
<path d="M230 0H220L176 44H198L230 12V0Z" fill="#D7E6B8"/>
<path d="M220 44H230V34L220 44Z" fill="#D7E6B8"/>
<path fill-rule="evenodd" clip-rule="evenodd" d="M242 0H264L220 44V22L242 0ZM242 44H264L308 0H286L242 44ZM308 44H286L330 0H352L308 44ZM330 44H352L396 0H374L330 44ZM396 44H374L418 0H440L396 44Z" fill="#F5F7F9"/>
<path d="M418 44H440L450 34V12L418 44Z" fill="#F5F7F9"/>
<path d="M242 0H220V22L242 0Z" fill="#D7E6B8"/>
<path d="M286 0H264L220 44H242L286 0Z" fill="#D7E6B8"/>
<path d="M330 0H308L264 44H286L330 0Z" fill="#D7E6B8"/>
<path d="M374 0H352L308 44H330L374 0Z" fill="#D7E6B8"/>
<path d="M418 0H396L352 44H374L418 0Z" fill="#D7E6B8"/>
<path d="M450 0H440L396 44H418L450 12V0Z" fill="#D7E6B8"/>
<path d="M440 44H450V34L440 44Z" fill="#D7E6B8"/>
<path fill-rule="evenodd" clip-rule="evenodd" d="M462 0H484L440 44V22L462 0ZM462 44H484L528 0H506L462 44ZM528 44H506L550 0H572L528 44ZM550 44H572L616 0H594L550 44ZM616 44H594L638 0H660L616 44Z" fill="#F5F7F9"/>
<path d="M638 44H660L670 34V12L638 44Z" fill="#F5F7F9"/>
<path d="M462 0H440V22L462 0Z" fill="#D7E6B8"/>
<path d="M506 0H484L440 44H462L506 0Z" fill="#D7E6B8"/>
<path d="M550 0H528L484 44H506L550 0Z" fill="#D7E6B8"/>
<path d="M594 0H572L528 44H550L594 0Z" fill="#D7E6B8"/>
<path d="M638 0H616L572 44H594L638 0Z" fill="#D7E6B8"/>
<path d="M670 0H660L616 44H638L670 12V0Z" fill="#D7E6B8"/>
<path d="M660 44H670V34L660 44Z" fill="#D7E6B8"/>
</svg>
