<svg width="183" height="44" viewBox="0 0 183 44" fill="none" xmlns="http://www.w3.org/2000/svg">
<g id="Layer_1" clip-path="url(#clip0_1884_42226)">
<path id="Vector" d="M183 0H0V30.2441H183V0Z" fill="#114222"/>
<path id="Vector_2" d="M142.443 26.8506H40.5596V44.0003H142.443V26.8506Z" fill="#95C11F"/>
<g id="Group">
<g id="Group_2">
<path id="Vector_3" d="M129.625 31.9185C130.55 31.9185 131.244 31.3826 131.434 30.6367H130.676C130.514 31.0705 130.158 31.3021 129.646 31.3021C129.134 31.3021 128.747 31.0313 128.616 30.6367H127.858C128.027 31.3924 128.695 31.9185 129.623 31.9185H129.625Z" fill="#114222"/>
<path id="Vector_4" d="M54.253 34.9214C54.6507 34.6525 54.8796 34.2403 54.8796 33.7535C54.8796 32.7642 54.2661 32.2598 53.4406 32.2598H51.4595V38.066H52.0579C52.0579 38.066 53.2136 38.066 53.3975 38.066C54.5288 38.066 55.2192 37.4006 55.2192 36.3445C55.2192 35.5731 54.7858 35.0942 54.2511 34.9214H54.253ZM52.2437 33.0037H53.2605C53.6658 33.0037 54.0297 33.2824 54.0297 33.8458C54.0297 34.3699 53.7014 34.6447 53.3056 34.7094H52.2437V33.0037ZM53.4275 37.324H52.2437V35.4652H53.5082C53.9997 35.4652 54.3693 35.8126 54.3693 36.3779C54.3693 36.9805 53.9659 37.326 53.4275 37.326V37.324Z" fill="#114222"/>
<path id="Vector_5" d="M102.33 34.9214C102.727 34.6525 102.956 34.2403 102.956 33.7535C102.956 32.7642 102.343 32.2598 101.517 32.2598H99.5361V38.066H100.135C100.135 38.066 101.29 38.066 101.474 38.066C102.605 38.066 103.296 37.4006 103.296 36.3445C103.296 35.5731 102.862 35.0942 102.328 34.9214H102.33ZM100.32 33.0037H101.337C101.741 33.0037 102.106 33.2824 102.106 33.8458C102.106 34.3699 101.778 34.6447 101.382 34.7094H100.32V33.0037ZM101.504 37.324H100.32V35.4652H101.585C102.076 35.4652 102.446 35.8126 102.446 36.3779C102.446 36.9805 102.043 37.326 101.504 37.326V37.324Z" fill="#114222"/>
<path id="Vector_6" d="M62.9224 32.2598H62.1382V38.066H62.9224V32.2598Z" fill="#114222"/>
<path id="Vector_7" d="M59.9955 34.7781H58.459V32.2598H57.6748V38.066H58.2733C58.2733 38.066 59.3483 38.066 59.5321 38.066C60.6634 38.066 61.4026 37.3692 61.4026 36.3799C61.4026 35.3906 60.7216 34.7781 59.9955 34.7781ZM59.6428 37.322H58.459V35.5319H59.7835C60.1869 35.5319 60.5527 35.844 60.5527 36.4093C60.5527 37.0119 60.1156 37.322 59.6428 37.322Z" fill="#114222"/>
<path id="Vector_8" d="M97.4539 35.1729C97.4539 33.3945 96.1106 32.1638 94.454 32.1638C92.7974 32.1638 91.4541 33.3985 91.4541 35.1729C91.4541 36.9474 92.7974 38.182 94.454 38.182C96.1106 38.182 97.4539 36.9513 97.4539 35.1729ZM94.454 37.3321C93.2645 37.3321 92.3002 36.4468 92.3002 35.1729C92.3002 33.899 93.2645 33.0137 94.454 33.0137C95.6434 33.0137 96.6077 33.897 96.6077 35.1729C96.6077 36.4488 95.6434 37.3321 94.454 37.3321Z" fill="#114222"/>
<path id="Vector_9" d="M72.877 32.2578H72.0928V38.0621H72.2898H72.877H75.3478V37.3083H72.877V35.5064H75.1583V34.7507H72.877V33.0155H75.3478V32.2598H72.877V32.2578Z" fill="#114222"/>
<path id="Vector_10" d="M89.726 32.2463H88.8667L87.3133 34.6685H86.0489V32.2502H85.2646V38.0564H86.0489V35.4222H87.4822L89.1744 38.0603H90.0656L88.0319 34.8883L89.726 32.2463Z" fill="#114222"/>
<path id="Vector_11" d="M116.901 32.2384H116.042L114.491 34.6586H113.224V32.2423H112.44V38.0466H113.224V35.4124H114.657L116.35 38.0505H117.241L115.207 34.8804L116.901 32.2384Z" fill="#114222"/>
<path id="Vector_12" d="M64.9658 35.1478C64.9658 36.9222 66.3091 38.1569 67.9657 38.1569C68.5942 38.1569 69.1908 37.9802 69.6579 37.6034V36.6121C69.2565 37.0636 68.6523 37.305 67.9657 37.305C66.7763 37.305 65.8119 36.4197 65.8119 35.1458C65.8119 33.8719 66.7763 32.9866 67.9657 32.9866C68.6523 32.9866 69.2827 33.3027 69.6579 33.6972V32.7256C69.172 32.3605 68.5942 32.1367 67.9657 32.1367C66.3091 32.1367 64.9658 33.3714 64.9658 35.1458V35.1478Z" fill="#114222"/>
<path id="Vector_13" d="M120.202 36.6883V32.2424H119.417V37.6619V38.0466H119.939L123.521 33.5987V38.0466H124.305V32.6232V32.2424H123.779L120.202 36.6883Z" fill="#114222"/>
<path id="Vector_14" d="M131.443 32.2424L127.865 36.6883V32.2424H127.081V37.6619V38.0466H127.603L131.182 33.5987V38.0466H131.966V32.6232V32.2424H131.443Z" fill="#114222"/>
<path id="Vector_15" d="M105.172 35.1478C105.172 36.9222 106.515 38.1569 108.172 38.1569C108.8 38.1569 109.397 37.9802 109.864 37.6034V36.6121C109.462 37.0636 108.858 37.305 108.172 37.305C106.982 37.305 106.018 36.4197 106.018 35.1458C106.018 33.8719 106.982 32.9866 108.172 32.9866C108.858 32.9866 109.489 33.3027 109.864 33.6972V32.7256C109.378 32.3605 108.8 32.1367 108.172 32.1367C106.515 32.1367 105.172 33.3714 105.172 35.1458V35.1478Z" fill="#114222"/>
<path id="Vector_16" d="M78.7362 37.5676C79.1902 36.9454 79.2221 36.2643 79.2221 34.3465V33.0098H81.7999V38.0564H82.5841V32.2502H81.7999V32.2541H78.4905L78.4698 32.2502V33.7753C78.4698 35.6636 78.4529 36.5273 78.2147 36.9061C77.9126 37.3851 77.4567 37.2909 77.1997 37.232V37.9955C77.346 38.078 77.5149 38.1094 77.6912 38.1094C78.0683 38.1094 78.4417 37.9641 78.7344 37.5637L78.7362 37.5676Z" fill="#114222"/>
</g>
<g id="Group_3">
<path id="Vector_17" d="M32.5446 8.82129H26.982H24.3423L25.2803 10.5408V21.4309H26.9838V10.5133L32.5446 10.5113V8.82129Z" fill="white"/>
<path id="Vector_18" d="M116.684 8.82129H110.086H108.011L108.943 10.4917V21.4309H110.652V10.4603L116.684 10.4564V21.4309H118.397V8.82129H116.684Z" fill="white"/>
<path id="Vector_19" d="M131.134 8.82118H124.061L124.993 10.4916V12.1228C124.993 16.237 125.017 18.1743 124.496 19.0007C123.837 20.045 122.958 19.778 122.398 19.6543V21.3169C122.717 21.4975 123.031 21.5662 123.415 21.5662C124.235 21.5662 124.957 21.3071 125.592 20.4356C126.578 19.0812 126.631 17.5344 126.629 13.3613C126.629 12.7646 126.629 11.528 126.629 10.4523H131.132V21.4308H132.839V8.82118H131.132H131.134Z" fill="white"/>
<path id="Vector_20" d="M101.463 8.80194L97.5366 16.5848L93.5461 8.80194H91.2385L91.9027 10.1779L91.0547 21.4115H92.7638L93.4017 12.2939L97.1257 19.5311H97.758L101.664 11.9092L102.443 21.4115H104.15L103.107 8.80194H101.463Z" fill="white"/>
<path id="Vector_21" d="M41.0977 8.82129H35.2236L36.1561 10.4917V21.4289H37.8689V16.3607C38.0734 16.3607 39.7206 16.3607 40.0902 16.3607C42.5535 16.3607 44.1632 14.6569 44.1632 12.4997C44.1632 10.3425 42.6792 8.81933 41.0977 8.82129ZM40.3322 14.7433C39.5818 14.7433 38.0622 14.7433 37.8671 14.7433V10.4721H40.6362C41.5161 10.4721 42.3115 11.3377 42.3115 12.5684C42.3115 13.8816 41.3622 14.7433 40.3322 14.7433Z" fill="white"/>
<path id="Vector_22" d="M53.3697 8.64063C49.8895 8.64259 47.2461 11.3337 47.2461 15.2006C47.2461 19.0675 49.8933 21.7547 53.3734 21.7527C56.8536 21.7507 59.497 19.0675 59.497 15.1927C59.497 11.318 56.3771 8.63866 53.3697 8.64063ZM53.3734 20.0175C50.8857 20.0175 49.049 18.0409 49.0471 15.1947C49.0471 12.3485 50.882 10.368 53.3697 10.366C55.8574 10.366 57.6941 12.3367 57.6959 15.1888C57.6959 18.0409 55.8611 20.0155 53.3734 20.0175Z" fill="white"/>
<path id="Vector_23" d="M140.054 19.8134L140.053 15.8896L145.022 15.8857V14.2428L140.053 14.2467L140.051 10.4642L145.435 10.4603L145.433 8.82129H140.049H137.409L138.342 10.4917L138.347 21.4309H138.781H145.439V19.8115L140.054 19.8134Z" fill="white"/>
<path id="Vector_24" d="M173.026 18.318C172.15 19.3034 170.837 19.8294 169.342 19.8314C166.751 19.8314 164.652 17.9038 164.65 15.1303C164.65 12.3567 166.747 10.4252 169.336 10.4233C170.831 10.4233 172.205 11.1103 173.021 11.9681V9.85207C171.963 9.0571 170.702 8.57031 169.334 8.57227C165.725 8.57227 162.8 11.2653 162.802 15.1322C162.802 18.9991 165.73 21.6863 169.34 21.6843C170.708 21.6843 172.008 21.2957 173.025 20.4791V18.32L173.026 18.318Z" fill="white"/>
<g id="Group_4">
<path id="Vector_25" d="M65.3347 8.82129H62.6895L63.6275 10.4917V21.4309H65.3347V8.82129Z" fill="white"/>
<path id="Vector_26" d="M68.295 14.9435L72.5951 8.82129H70.7246L66.312 15.1732L70.6871 21.4309H72.9684L68.295 14.9435Z" fill="white"/>
</g>
<path id="Vector_27" d="M81.1524 8.64063C77.6722 8.64259 75.0288 11.3337 75.0288 15.2006C75.0288 19.0675 77.676 21.7547 81.1561 21.7527C84.6363 21.7507 87.2797 19.0675 87.2797 15.1927C87.2797 11.318 84.6325 8.63866 81.1524 8.64063ZM81.1561 20.0175C78.6684 20.0175 76.8317 18.0409 76.8299 15.1947C76.8299 12.3485 78.6647 10.368 81.1524 10.366C83.6401 10.366 85.4768 12.3367 85.4787 15.1888C85.4787 18.0409 83.6438 20.0155 81.1561 20.0175Z" fill="white"/>
<g id="Group_5">
<path id="Vector_28" d="M152.446 8.82129H149.801L150.737 10.4917V21.4309H152.446V8.82129Z" fill="white"/>
<path id="Vector_29" d="M155.406 14.9435L159.706 8.82129H157.834L153.423 15.1732L157.798 21.4309H160.078L155.406 14.9435Z" fill="white"/>
</g>
<path id="Vector_30" d="M13.9769 8.87305L14.4797 9.91141L9.84766 21.3432H11.5962L13.0895 17.6569H17.9862L19.5452 21.3393H21.4175L16.1401 8.87305H13.9751H13.9769ZM13.7368 16.0611L15.4853 11.7447L17.3108 16.0592H13.7368V16.0611Z" fill="white"/>
</g>
</g>
</g>
<defs>
<clipPath id="clip0_1884_42226">
<rect width="183" height="44" fill="white"/>
</clipPath>
</defs>
</svg>
