<svg width="36" height="36" viewBox="0 0 36 36" fill="none" xmlns="http://www.w3.org/2000/svg">
<g id="Layer_1" clip-path="url(#clip0_1953_16313)">
<path id="Vector" d="M17.9994 35.9989C27.9402 35.9989 35.9989 27.9402 35.9989 17.9994C35.9989 8.05862 27.9402 0 17.9994 0C8.05862 0 0 8.05862 0 17.9994C0 27.9402 8.05862 35.9989 17.9994 35.9989Z" fill="#95C11F"/>
<path id="Vector_2" d="M14.4868 15.087C14.2809 14.4019 14.934 12.7229 14.934 12.7229C14.934 12.7229 16.4048 13.7648 16.6095 14.4488C16.8153 15.1338 16.5065 15.8315 15.9198 16.0076C15.3331 16.1838 14.6915 15.7709 14.4856 15.087H14.4868ZM20.8709 20.1547C20.3402 20.2015 19.3589 21.1188 19.3589 21.1188C19.3589 21.1188 20.4866 21.8485 21.0173 21.8016C21.5479 21.7547 21.9459 21.3475 21.9059 20.8935C21.8659 20.4394 21.4027 20.1089 20.872 20.1558L20.8709 20.1547ZM7.9563 13.201C8.53616 13.1495 8.97076 12.7058 8.92615 12.2094C8.88155 11.7131 8.37604 11.3528 7.79619 11.4043C7.21633 11.4557 6.14469 12.4565 6.14469 12.4565C6.14469 12.4565 7.37645 13.2525 7.9563 13.201ZM18.3788 17.9976C18.866 17.8513 19.1233 17.2703 18.9518 16.7007C18.7802 16.1311 17.5576 15.2654 17.5576 15.2654C17.5576 15.2654 17.0143 16.6618 17.1859 17.2314C17.3575 17.8009 17.8916 18.144 18.3788 17.9976ZM20.6113 19.7784C20.9852 19.6663 21.182 19.2214 21.0504 18.7845C20.9189 18.3476 19.9822 17.6843 19.9822 17.6843C19.9822 17.6843 19.5659 18.7548 19.6974 19.1905C19.829 19.6274 20.2373 19.8893 20.6113 19.7772V19.7784ZM18.269 20.5046C18.9174 20.4474 19.4035 19.9499 19.3543 19.3941C19.3052 18.8383 18.739 18.4345 18.0906 18.4929C17.4421 18.5501 16.2424 19.6709 16.2424 19.6709C16.2424 19.6709 17.6205 20.5618 18.269 20.5046ZM15.3937 16.6469C14.6263 16.7156 13.2081 18.04 13.2081 18.04C13.2081 18.04 14.8379 19.0944 15.6053 19.0258C16.3727 18.9572 16.9469 18.3693 16.8885 17.7129C16.8302 17.0564 16.1612 16.5783 15.3937 16.6469ZM13.2482 13.9947C13.8795 13.8049 14.2123 13.0535 13.9904 12.3158C13.7685 11.5781 12.1857 10.4561 12.1857 10.4561C12.1857 10.4561 11.4823 12.2655 11.7042 13.002C11.9261 13.7397 12.6168 14.1834 13.2493 13.9936L13.2482 13.9947ZM12.5791 14.8136C11.8117 14.8822 10.3935 16.2066 10.3935 16.2066C10.3935 16.2066 12.0233 17.2611 12.7907 17.1925C13.5581 17.1239 14.1322 16.5372 14.0739 15.8795C14.0156 15.2231 13.3465 14.745 12.5791 14.8136ZM10.6474 12.2426C11.2787 12.0527 11.6115 11.3013 11.3897 10.5637C11.1678 9.82597 9.58492 8.70401 9.58492 8.70401C9.58492 8.70401 8.88155 10.5133 9.10343 11.2499C9.3253 11.9875 10.0161 12.4313 10.6486 12.2414L10.6474 12.2426ZM11.3542 14.0222C11.2959 13.3657 10.6268 12.8876 9.85941 12.9563C9.09199 13.0249 7.67381 14.3493 7.67381 14.3493C7.67381 14.3493 9.30357 15.4038 10.071 15.3351C10.8384 15.2665 11.4125 14.6798 11.3542 14.0222ZM6.57015 10.781C7.20833 11.2133 8.02492 11.1206 8.39434 10.5739C8.76375 10.0284 8.54645 9.23468 7.90941 8.80351C7.27123 8.37119 5.33496 8.50272 5.33496 8.50272C5.33496 8.50272 5.93197 10.3498 6.57015 10.781ZM19.6574 6.72656H16.2446L25.8299 27.6413H29.2427L19.6563 6.72656H19.6574ZM13.8898 20.4257H7.38103C8.13472 22.0966 9.34017 22.8595 10.6817 23.2678L8.65281 27.6413H12.0004L13.804 23.4908H16.0559C18.5457 23.4908 21.0905 23.8671 21.0905 23.8671C21.0905 23.8671 19.0044 20.4257 13.8886 20.4257H13.8898Z" fill="#114222"/>
</g>
<defs>
<clipPath id="clip0_1953_16313">
<rect width="36" height="36" fill="white"/>
</clipPath>
</defs>
</svg>
