<svg width="34" height="34" viewBox="0 0 34 34" fill="none" xmlns="http://www.w3.org/2000/svg">
<g id="Iconex/Light/Credit card">
<g id="Credit card">
<rect id="Rectangle 2" x="4.99805" y="7.40308" width="24.0026" height="19.2021" rx="6.00065" stroke="#333333" stroke-width="1.8002"/>
<path id="Line" d="M4.99805 14.0059H29.0007" stroke="#333333" stroke-width="1.8002" stroke-linecap="round" stroke-linejoin="round"/>
<path id="Vector" d="M11.7639 17.0005C9.98255 17.0005 8.5293 18.3326 8.5293 19.9655C8.5293 21.5984 9.98255 22.9305 11.7639 22.9305C12.4248 22.933 13.0704 22.7481 13.6122 22.4011C14.1541 22.7478 14.7996 22.9327 15.4605 22.9305C17.2419 22.9305 18.6951 21.5984 18.6951 19.9655C18.6951 18.3326 17.2419 17.0005 15.4605 17.0005C14.7996 16.9983 14.1541 17.1832 13.6122 17.53C13.0704 17.183 12.4248 16.998 11.7639 17.0005ZM11.7639 17.8477C12.3558 17.8477 12.8867 18.0577 13.2948 18.3903C13.1019 18.6082 12.9504 18.8544 12.8465 19.1184H13.8724C13.937 19.2539 13.9985 19.3945 14.0308 19.5419H12.7315C12.7041 19.6818 12.6895 19.8235 12.688 19.9655C12.688 20.1112 12.7065 20.2519 12.7315 20.3891H14.0308C13.9985 20.5365 13.937 20.6771 13.8724 20.8127H12.8465C12.9496 21.0791 13.1053 21.3239 13.2948 21.5408C12.8867 21.8733 12.3553 22.0834 11.7639 22.0834C10.4825 22.0834 9.45346 21.1401 9.45346 19.9655C9.45346 18.791 10.4825 17.8477 11.7639 17.8477ZM15.4605 17.8477C16.7419 17.8477 17.7709 18.791 17.7709 19.9655C17.7709 21.1401 16.7419 22.0834 15.4605 22.0834C15.054 22.0821 14.6553 21.9815 14.3053 21.792C14.7551 21.2725 14.9995 20.6287 14.9984 19.9655C14.9996 19.3022 14.7552 18.6582 14.3053 18.1387C14.6553 17.9492 15.0541 17.8488 15.4605 17.8477Z" fill="#333333"/>
</g>
</g>
</svg>
