<svg width="32" height="32" viewBox="0 0 32 32" fill="none" xmlns="http://www.w3.org/2000/svg">
<g id="021-meat" clip-path="url(#clip0_1883_30018)">
<g id="Group">
<path id="Vector" d="M28.0204 4.29999C23.0291 -1.07644 13.9583 -1.18599 8.83209 4.05711C6.80652 6.04764 5.47839 8.57305 4.99115 11.3601C4.5521 13.8713 3.53401 16.2261 2.04684 18.1698L1.93105 18.3211C-2.28097 23.7833 1.69454 31.8396 8.59422 31.8048H8.59446C10.4511 31.8048 12.2127 31.2079 13.6885 30.0788L13.8484 29.9565C15.8153 28.4516 18.1405 27.4386 20.5726 27.027C23.347 26.5576 25.8684 25.2545 27.8643 23.2587C33.0458 18.2829 33.1188 9.35841 28.0204 4.29999ZM29.9698 13.7893C30.0198 19.3091 25.7128 24.3609 20.2634 25.1994C17.5353 25.6611 14.9275 26.797 12.7222 28.4843L12.5624 28.6066C11.4125 29.4863 10.0404 29.9513 8.59434 29.9512C6.8478 29.9512 5.20635 29.2715 3.97225 28.0375C1.67742 25.8167 1.42138 21.9515 3.40321 19.4474L3.51899 19.2961C5.18645 17.1167 6.32688 14.4828 6.81703 11.6792C7.23723 9.27549 8.38334 7.09682 10.1314 5.37894C17.4901 -1.89522 30.059 3.4649 29.9698 13.7893Z" fill="#25472F"/>
<path id="Vector_2" d="M25.1385 6.67172C19.665 1.30369 10.1993 4.3072 8.85928 11.864C8.22796 15.3091 6.90656 18.4112 4.93172 21.0841L4.89032 21.1402C3.63787 22.7802 3.82372 25.268 5.30583 26.7037C6.11324 27.5111 7.18719 27.9558 8.32978 27.9559C9.24989 27.956 10.128 27.6668 10.8685 27.1199L10.8925 27.1021C13.641 25.0722 16.7931 23.7121 20.0082 23.1691C21.9976 22.833 23.8056 21.8989 25.2366 20.4679C29.0333 16.8279 28.987 10.2588 25.1385 6.67172ZM25.8696 11.287L25.5241 11.6325C23.817 13.4085 20.8027 13.5712 18.9144 12.0044C19.5007 10.0909 19.6547 8.04335 19.3589 6.06412L19.3271 5.85127C22.3222 6.16038 25.0145 8.41573 25.8696 11.287ZM10.6825 12.1981C11.2425 8.8971 14.1234 6.19035 17.4529 5.85072L17.5258 6.33808C18.0674 9.96296 16.8435 13.6743 14.252 16.266L12.0482 18.4697C10.8405 18.3641 9.61516 18.504 8.45409 18.8893C9.49845 16.8253 10.2448 14.5867 10.6825 12.1981ZM9.79162 25.6109L9.76759 25.6286C9.34794 25.9386 8.85094 26.1024 8.33015 26.1024H8.32997C7.68239 26.1023 7.07387 25.8504 6.61654 25.3931C5.77787 24.5543 5.66715 23.2617 6.34277 22.2952C9.05897 19.6336 13.4146 19.6194 16.1484 22.2524C13.9071 23.0276 11.753 24.1623 9.79162 25.6109ZM23.9259 19.1573C22.7686 20.3146 21.3071 21.0698 19.6995 21.3414C19.1893 21.4276 18.6807 21.5325 18.1748 21.6559L17.5545 21.0356C16.5786 20.0597 15.4304 19.3586 14.207 18.9321L15.5625 17.5766C16.6573 16.4818 17.56 15.1941 18.2213 13.7934C20.5712 15.4212 23.999 15.2951 26.2191 13.4898C26.2194 13.5142 26.2198 13.5387 26.2199 13.5632C26.2348 15.6765 25.42 17.6631 23.9259 19.1573Z" fill="#25472F"/>
</g>
</g>
<defs>
<clipPath id="clip0_1883_30018">
<rect width="31.6098" height="31.6098" fill="white" transform="translate(0.195129 0.195129)"/>
</clipPath>
</defs>
</svg>
