<svg width="34" height="34" viewBox="0 0 34 34" fill="none" xmlns="http://www.w3.org/2000/svg">
<rect x="4.99805" y="7.40332" width="24.0026" height="19.2021" rx="6.00065" stroke="#333333" stroke-width="1.8002"/>
<path d="M4.99805 14.0063H29.0007" stroke="#333333" stroke-width="1.8002" stroke-linecap="round" stroke-linejoin="round"/>
<path fill-rule="evenodd" clip-rule="evenodd" d="M17.1181 20.4531V22.1996H18.1861V21.1797H19.3431C19.8474 21.1797 20.2746 20.8765 20.4334 20.4531H17.1181Z" fill="#25472F"/>
<path fill-rule="evenodd" clip-rule="evenodd" d="M19.343 19.0001H16.9682C17.0869 19.6093 17.5719 20.0985 18.1994 20.2577C18.3418 20.2941 18.4916 20.3136 18.6459 20.3136H20.4763C20.4926 20.241 20.5 20.1669 20.5 20.0901C20.5 19.4879 19.9823 19.0001 19.343 19.0001Z" fill="#25472F"/>
<path fill-rule="evenodd" clip-rule="evenodd" d="M15.6348 19C15.6348 19 15.3219 19.0266 15.175 19.3354L14.4185 20.9004H14.3295V19H13.2615V22.2H14.2702C14.2702 22.2 14.598 22.172 14.7448 21.8646L15.4865 20.2996H15.5755V22.2H16.6435V19H15.6348Z" fill="#25472F"/>
<path fill-rule="evenodd" clip-rule="evenodd" d="M11.7336 19V19.0014C11.7336 19.0014 11.2649 19 11.1403 19.4206C11.0261 19.8062 10.7042 20.8711 10.6953 20.9004H10.6063C10.6063 20.9004 10.277 19.8118 10.1613 19.4192C10.0367 18.9987 9.56799 19 9.56799 19H8.5V22.2H9.56799V20.2996H9.61249H9.65699L10.28 22.2H11.0217L11.6446 20.301H11.7336V22.2H12.8016V19H11.7336Z" fill="#25472F"/>
</svg>
