<svg width="22" height="22" viewBox="0 0 22 22" fill="none" xmlns="http://www.w3.org/2000/svg">
<path d="M17.2996 12.8003C18.2896 12.8003 19.0996 11.9903 19.0996 11.0003C19.0996 10.0103 18.2896 9.20029 17.2996 9.20029C16.3096 9.20029 15.4996 10.0103 15.4996 11.0003C15.4996 11.9903 16.3096 12.8003 17.2996 12.8003ZM4.69961 12.8003C5.68961 12.8003 6.49961 11.9903 6.49961 11.0003C6.49961 10.0103 5.68961 9.20029 4.69961 9.20029C3.70961 9.20029 2.89961 10.0103 2.89961 11.0003C2.89961 11.9903 3.70961 12.8003 4.69961 12.8003ZM10.9996 12.8003C11.9896 12.8003 12.7996 11.9903 12.7996 11.0003C12.7996 10.0103 11.9896 9.20029 10.9996 9.20029C10.0096 9.20029 9.19961 10.0103 9.19961 11.0003C9.19961 11.9903 10.0096 12.8003 10.9996 12.8003Z" fill="#25472F"/>
</svg>
