<svg width="338" height="217" viewBox="0 0 338 217" fill="none" xmlns="http://www.w3.org/2000/svg">
<path d="M160.209 75.9751C159.288 72.8633 162.211 65.2371 162.211 65.2371C162.211 65.2371 168.793 69.9697 169.71 73.0763C170.631 76.1881 169.249 79.357 166.623 80.157C163.997 80.957 161.126 79.0816 160.204 75.9751H160.209ZM188.782 98.9939C186.407 99.2069 182.015 103.373 182.015 103.373C182.015 103.373 187.062 106.688 189.437 106.475C191.812 106.262 193.593 104.412 193.414 102.35C193.235 100.287 191.162 98.7861 188.787 98.9991L188.782 98.9939ZM130.982 67.4086C133.577 67.1748 135.522 65.1592 135.323 62.9046C135.123 60.65 132.86 59.0136 130.265 59.2473C127.67 59.4811 122.874 64.0267 122.874 64.0267C122.874 64.0267 128.387 67.6424 130.982 67.4086ZM177.628 89.1962C179.809 88.5312 180.96 85.8922 180.192 83.3051C179.425 80.718 173.953 76.7855 173.953 76.7855C173.953 76.7855 171.522 83.1285 172.289 85.7156C173.057 88.3027 175.448 89.8612 177.628 89.1962ZM187.62 97.2847C189.293 96.7756 190.174 94.7548 189.585 92.7703C188.997 90.7859 184.804 87.7728 184.804 87.7728C184.804 87.7728 182.941 92.6353 183.53 94.6145C184.118 96.599 185.946 97.7886 187.62 97.2795V97.2847ZM177.137 100.584C180.039 100.324 182.214 98.064 181.994 95.5392C181.774 93.0145 179.24 91.1807 176.338 91.4456C173.436 91.7054 168.066 96.7964 168.066 96.7964C168.066 96.7964 174.234 100.843 177.137 100.584ZM164.268 83.061C160.834 83.3727 154.487 89.3884 154.487 89.3884C154.487 89.3884 161.781 94.1782 165.215 93.8665C168.65 93.5548 171.22 90.8846 170.958 87.9027C170.697 84.9208 167.703 82.7493 164.268 83.061ZM154.666 71.0139C157.491 70.1515 158.981 66.7384 157.988 63.3877C156.995 60.037 149.911 54.9407 149.911 54.9407C149.911 54.9407 146.763 63.1591 147.756 66.5047C148.749 69.8554 151.84 71.8711 154.671 71.0087L154.666 71.0139ZM151.671 74.7335C148.237 75.0452 141.89 81.0609 141.89 81.0609C141.89 81.0609 149.184 85.8507 152.618 85.539C156.053 85.2273 158.623 82.5623 158.362 79.5752C158.1 76.5933 155.106 74.4218 151.671 74.7335ZM143.026 63.0552C145.852 62.1929 147.341 58.7798 146.348 55.429C145.355 52.0783 138.271 46.9821 138.271 46.9821C138.271 46.9821 135.123 55.2005 136.116 58.546C137.109 61.8968 140.201 63.9124 143.031 63.05L143.026 63.0552ZM146.189 71.1386C145.928 68.1567 142.934 65.9852 139.499 66.2969C136.065 66.6086 129.718 72.6243 129.718 72.6243C129.718 72.6243 137.012 77.4141 140.446 77.1024C143.881 76.7907 146.45 74.1257 146.189 71.1386ZM124.778 56.4161C127.634 58.3798 131.289 57.959 132.942 55.4758C134.596 52.9978 133.623 49.3925 130.772 47.434C127.916 45.4703 119.25 46.0678 119.25 46.0678C119.25 46.0678 121.922 54.4576 124.778 56.4161ZM183.351 38H168.077L210.976 133H226.25L183.346 38H183.351ZM157.537 100.225H128.407C131.78 107.815 137.175 111.28 143.18 113.135L134.099 133H149.081L157.154 114.148H167.232C178.375 114.148 189.764 115.857 189.764 115.857C189.764 115.857 180.428 100.225 157.532 100.225H157.537Z" fill="#708E7A" fill-opacity="0.6"/>
<path fill-rule="evenodd" clip-rule="evenodd" d="M227.397 153.09C212.62 166.649 192.916 174.924 171.28 174.924C125.424 174.924 88.25 137.75 88.25 91.8937C88.25 46.0373 125.424 8.86328 171.28 8.86328C217.137 8.86328 254.311 46.0373 254.311 91.8937C254.311 111.963 247.191 130.369 235.339 144.723L288.823 198.207C291.074 200.459 291.074 204.109 288.823 206.361C286.571 208.613 282.92 208.613 280.668 206.361L227.397 153.09ZM242.779 91.8937C242.779 131.381 210.768 163.392 171.28 163.392C131.793 163.392 99.782 131.381 99.782 91.8937C99.782 52.4062 131.793 20.3953 171.28 20.3953C210.768 20.3953 242.779 52.4062 242.779 91.8937Z" fill="#708E7A" fill-opacity="0.6"/>
<path d="M61.2965 133H45.6958V111.023H2.28488V99.4922L38.9128 38.0387H56.8198L22.4981 95.4225H45.6958V71.9535H61.2965V95.4225H73.5059V111.023H61.2965V133Z" fill="#708E7A" fill-opacity="0.6"/>
<path d="M321.797 133H306.196V111.023H262.785V99.4922L299.413 38.0387H317.32L282.998 95.4225H306.196V71.9535H321.797V95.4225H334.006V111.023H321.797V133Z" fill="#708E7A" fill-opacity="0.6"/>
</svg>
