<svg width="22" height="22" viewBox="0 0 22 22" fill="none" xmlns="http://www.w3.org/2000/svg">
<g id="ic:round-arrow-drop-down">
<path id="Vector" d="M8.59562 14.811L11.9292 11.5372L8.59562 8.26338C8.51608 8.18527 8.45298 8.09253 8.40993 7.99047C8.36688 7.8884 8.34473 7.77901 8.34473 7.66854C8.34473 7.55806 8.36688 7.44867 8.40993 7.3466C8.45298 7.24454 8.51608 7.1518 8.59562 7.07368C8.67516 6.99557 8.76959 6.9336 8.87352 6.89132C8.97745 6.84905 9.08884 6.82729 9.20133 6.82729C9.31382 6.82729 9.42521 6.84905 9.52914 6.89132C9.63307 6.9336 9.7275 6.99557 9.80704 7.07368L13.7506 10.9465C13.8303 11.0246 13.8934 11.1173 13.9366 11.2194C13.9797 11.3215 14.0019 11.4309 14.0019 11.5414C14.0019 11.6519 13.9797 11.7613 13.9366 11.8634C13.8934 11.9655 13.8303 12.0582 13.7506 12.1362L9.80704 16.0091C9.72756 16.0873 9.63315 16.1494 9.52921 16.1917C9.42527 16.2341 9.31386 16.2559 9.20133 16.2559C9.08881 16.2559 8.97739 16.2341 8.87345 16.1917C8.76952 16.1494 8.67511 16.0873 8.59562 16.0091C8.26914 15.68 8.26055 15.14 8.59562 14.811Z" fill="#333333"/>
</g>
</svg>
