<svg width="34" height="34" viewBox="0 0 34 34" fill="none" xmlns="http://www.w3.org/2000/svg">
<rect x="10.2422" y="5.65247" width="13.7575" height="22.9291" rx="3.43937" stroke="#333333" stroke-width="1.71968"/>
<path d="M19.4141 6.22864L14.8282 6.22864" stroke="#333333" stroke-width="2.86614" stroke-linecap="round"/>
<path d="M15.0999 18.0138H13.9813V16.9637H15.0999V13.4253C15.4347 13.4253 15.7962 13.4215 16.1843 13.4139C16.5723 13.4063 16.9642 13.4025 17.3599 13.4025C19.4221 13.4025 20.4532 14.1824 20.4532 15.7424C20.4532 16.4501 20.1983 17.0056 19.6884 17.4089C19.1786 17.8122 18.4633 18.0138 17.5426 18.0138H16.4924V18.9612H18.3644V20.0113H16.4924V21.4153H15.0999V20.0113H13.9813V18.9612H15.0999V18.0138ZM17.5083 14.7151C17.5007 14.7151 17.1621 14.7227 16.4924 14.7379V16.9637H17.4969C18.4785 16.9637 18.9693 16.5985 18.9693 15.8679C18.9693 15.4646 18.8476 15.1717 18.6041 14.989C18.3682 14.8064 18.0029 14.7151 17.5083 14.7151Z" fill="#333333"/>
</svg>
