<svg width="20" height="20" viewBox="0 0 20 20" fill="none" xmlns="http://www.w3.org/2000/svg">
<path d="M2.59303 6.30799C3.27868 8.98312 4.6707 11.4248 6.62344 13.3775C8.57618 15.3303 11.0179 16.7223 13.693 17.4079C15.7513 17.9319 17.5 16.162 17.5 14.0374V13.076C17.5 12.5453 17.0683 12.1195 16.5406 12.0666C15.6652 11.9803 14.806 11.7736 13.9872 11.4523L12.5259 12.9136C10.1466 11.773 8.22794 9.8544 7.08743 7.47509L8.54871 6.01381C8.22707 5.19506 8.02002 4.33581 7.93343 3.46042C7.88152 2.93167 7.45563 2.50098 6.92496 2.50098H5.96359C3.83896 2.50098 2.06909 4.2497 2.59303 6.30799Z" stroke="#25472F" stroke-width="1.5" stroke-linecap="round" stroke-linejoin="round"/>
</svg>
