<svg width="16" height="16" viewBox="0 0 16 16" fill="none" xmlns="http://www.w3.org/2000/svg">
<path fill-rule="evenodd" clip-rule="evenodd" d="M5.90488 0.279545C7.47817 -0.14765 9.14441 -0.0839814 10.6805 0.462027C12.2166 1.00803 13.5492 2.01032 14.5 3.33468V1.74961C14.5 1.55069 14.579 1.35991 14.7197 1.21926C14.8603 1.0786 15.0511 0.999577 15.25 0.999577C15.4489 0.999577 15.6397 1.0786 15.7803 1.21926C15.921 1.35991 16 1.55069 16 1.74961V5.9998H11.75C11.551 5.9998 11.3603 5.92077 11.2196 5.78012C11.079 5.63946 10.9999 5.44868 10.9999 5.24976C10.9999 5.05084 11.079 4.86007 11.2196 4.71941C11.3603 4.57875 11.551 4.49973 11.75 4.49973H13.477C12.6936 3.27416 11.5219 2.34675 10.1492 1.86585C8.7765 1.38494 7.28219 1.37835 5.9053 1.84711C4.52842 2.31587 3.34853 3.23291 2.5544 4.45151C1.76027 5.67011 1.39778 7.11985 1.52493 8.56882C1.65208 10.0178 2.26152 11.3822 3.25575 12.4439C4.24997 13.5056 5.57154 14.2031 7.00902 14.4249C8.4465 14.6466 9.91683 14.3799 11.1848 13.6672C12.4527 12.9546 13.4451 11.8373 14.003 10.494C14.0392 10.4009 14.0937 10.3159 14.1632 10.2441C14.2327 10.1723 14.3158 10.1152 14.4077 10.076C14.4996 10.0367 14.5984 10.0163 14.6984 10.0158C14.7983 10.0153 14.8973 10.0348 14.9896 10.0731C15.0818 10.1115 15.1655 10.1678 15.2357 10.2389C15.3059 10.31 15.3612 10.3945 15.3983 10.4872C15.4354 10.58 15.4537 10.6793 15.4519 10.7792C15.4501 10.8791 15.4284 10.9776 15.388 11.069C14.8668 12.3236 14.0347 13.4248 12.9702 14.2688C11.9056 15.1128 10.6437 15.6718 9.30334 15.8931C7.96298 16.1144 6.58834 15.9908 5.309 15.5338C4.02966 15.0768 2.88776 14.3015 1.99095 13.2811C1.09413 12.2606 0.471937 11.0286 0.183017 9.70112C-0.105902 8.37364 -0.0520303 6.99446 0.339555 5.69357C0.73114 4.39268 1.44754 3.21294 2.42122 2.26556C3.3949 1.31817 4.59379 0.635347 5.90488 0.279545Z" fill="#25472F"/>
</svg>
