<svg width="20" height="20" viewBox="0 0 20 20" fill="none" xmlns="http://www.w3.org/2000/svg">
<path d="M10.0004 2C10.1938 2 10.3873 2.00655 10.58 2.02036C11.1349 2.06037 11.5582 2.4691 11.6796 2.96875L11.9356 4.02332C11.9495 4.08005 12.0011 4.14769 12.0993 4.18405C12.2789 4.24878 12.4556 4.32223 12.6287 4.40369C12.7233 4.44806 12.8076 4.43569 12.8578 4.40515L13.7851 3.84077C14.2236 3.57313 14.8113 3.58404 15.2324 3.94768C15.5247 4.2015 15.7996 4.47569 16.0527 4.76879C16.4171 5.18916 16.4273 5.77681 16.1596 6.2161L15.5953 7.14266C15.5647 7.19285 15.5531 7.27721 15.5967 7.37176C15.6782 7.54485 15.7516 7.72158 15.8171 7.90123C15.852 7.99941 15.9204 8.05032 15.9771 8.06487L17.0316 8.32087C17.5313 8.44233 17.94 8.86561 17.9793 9.42053C18.0069 9.80672 18.0069 10.1936 17.9793 10.5798C17.94 11.1348 17.5313 11.558 17.0316 11.6795L15.9771 11.9355C15.9204 11.9493 15.8527 12.001 15.8164 12.0991C15.7516 12.2795 15.6782 12.4562 15.5967 12.6286C15.5524 12.7232 15.5647 12.8075 15.5953 12.8577L16.1596 13.785C16.4273 14.2236 16.4164 14.8112 16.0527 15.2323C15.7989 15.5247 15.5247 15.7996 15.2316 16.0527C14.8113 16.4171 14.2236 16.4272 13.7844 16.1596L12.8578 15.5952C12.8076 15.5647 12.7233 15.553 12.6295 15.5967C12.4562 15.6782 12.2793 15.7517 12.0993 15.817C12.0011 15.852 11.9502 15.9203 11.9356 15.977L11.6796 17.0316C11.5582 17.5313 11.1349 17.94 10.58 17.9793C10.1938 18.0069 9.80691 18.0069 9.42073 17.9793C8.86582 17.94 8.44255 17.5313 8.32109 17.0316L8.06509 15.977C8.05127 15.9203 7.99964 15.8527 7.90145 15.8163C7.72153 15.7517 7.54483 15.6784 7.372 15.5967C7.27745 15.5523 7.19309 15.5647 7.14291 15.5952L6.21564 16.1596C5.77709 16.4272 5.18946 16.4163 4.76836 16.0527C4.476 15.7989 4.20109 15.5247 3.948 15.2316C3.58364 14.8112 3.57345 14.2235 3.84109 13.7843L4.40545 12.8577C4.436 12.8075 4.44764 12.7232 4.404 12.6293C4.32247 12.4561 4.24894 12.2791 4.18364 12.0991C4.14873 12.001 4.08036 11.95 4.02364 11.9355L2.96909 11.6795C2.46946 11.558 2.06073 11.1348 2.02073 10.5798C1.99309 10.1939 1.99309 9.80647 2.02073 9.42053C2.06073 8.86561 2.46946 8.44233 2.96909 8.32087L4.02364 8.06487C4.08036 8.05105 4.148 7.99941 4.18436 7.90123C4.24909 7.72086 4.32255 7.54413 4.404 7.37176C4.44836 7.27721 4.436 7.19285 4.40545 7.14266L3.84109 6.21537C3.57345 5.77681 3.58436 5.18916 3.948 4.76806C4.20182 4.47569 4.476 4.20078 4.76909 3.94768C5.18946 3.58331 5.77709 3.57313 6.21636 3.84077L7.14291 4.40515C7.19309 4.43569 7.27745 4.44733 7.372 4.40369C7.54509 4.32223 7.72182 4.24878 7.90145 4.18332C7.99964 4.14841 8.05055 4.08005 8.06509 4.02332L8.32109 2.96875C8.44255 2.4691 8.86582 2.06037 9.42073 2.02036C9.612 2.00727 9.80545 2 10.0004 2ZM9.49855 3.10912C9.45855 3.11203 9.40036 3.14548 9.38145 3.22621L9.12473 4.28078C9.07035 4.49392 8.96406 4.69028 8.81533 4.85234C8.6666 5.01439 8.48006 5.13711 8.27236 5.20953C8.12424 5.26325 7.97863 5.32367 7.836 5.39062C7.63771 5.48654 7.41875 5.53182 7.19868 5.52243C6.97862 5.51304 6.7643 5.44926 6.57491 5.3368L5.64836 4.77243C5.57709 4.72879 5.51309 4.74624 5.48255 4.77243C5.22951 4.99201 4.99231 5.22922 4.77273 5.48226C4.74655 5.51281 4.72909 5.57754 4.77273 5.64808L5.33709 6.57465C5.56545 6.95939 5.58582 7.43285 5.39091 7.83577C5.32396 7.97841 5.26354 8.12401 5.20982 8.27214C5.13749 8.4801 5.01473 8.66687 4.85253 8.81575C4.69033 8.96464 4.49374 9.07097 4.28036 9.12525L3.22582 9.38053C3.14582 9.40017 3.11236 9.45835 3.10945 9.49835C3.08545 9.83247 3.08545 10.1679 3.10945 10.502C3.11236 10.542 3.14582 10.6002 3.22655 10.6191L4.28109 10.8758C4.49422 10.9302 4.69058 11.0365 4.85264 11.1852C5.01469 11.334 5.1374 11.5205 5.20982 11.7282C5.26364 11.8766 5.324 12.022 5.39091 12.1646C5.58582 12.5668 5.56545 13.0403 5.33709 13.425L4.77273 14.3523C4.72909 14.4236 4.74655 14.4876 4.77273 14.5181C4.99164 14.7712 5.22945 15.009 5.48255 15.2279C5.51309 15.2541 5.57782 15.2716 5.64836 15.2279L6.57491 14.6636C6.76418 14.5508 6.97847 14.4868 7.19858 14.4773C7.41868 14.4677 7.6377 14.513 7.836 14.609C7.97855 14.6767 8.124 14.737 8.27236 14.7908C8.48031 14.8632 8.66709 14.9859 8.81596 15.1481C8.96484 15.3103 9.07118 15.5069 9.12545 15.7203L9.38073 16.7749C9.40036 16.8549 9.45855 16.8883 9.49855 16.8912C9.83266 16.9153 10.1681 16.9153 10.5022 16.8912C10.5422 16.8883 10.6004 16.8549 10.6193 16.7742L10.876 15.7196C10.9304 15.5064 11.0367 15.3099 11.1854 15.1477C11.3341 14.9856 11.5206 14.8627 11.7284 14.7901C11.8766 14.7369 12.0222 14.6768 12.1647 14.6097C12.3629 14.5138 12.5817 14.4685 12.8017 14.4779C13.0216 14.4873 13.2358 14.5511 13.4251 14.6636L14.3524 15.2279C14.4236 15.2716 14.4876 15.2541 14.5182 15.2279C14.7713 15.009 15.0091 14.7712 15.228 14.5181C15.2542 14.4876 15.2716 14.4228 15.228 14.3523L14.6636 13.425C14.5513 13.2357 14.4875 13.0216 14.4779 12.8016C14.4684 12.5817 14.5135 12.3629 14.6091 12.1646C14.6767 12.022 14.7371 11.8766 14.7909 11.7282C14.8632 11.5203 14.986 11.3335 15.1482 11.1846C15.3104 11.0357 15.507 10.9294 15.7204 10.8751L16.7749 10.6198C16.8549 10.6002 16.8884 10.542 16.8913 10.502C16.9153 10.1679 16.9153 9.83247 16.8913 9.49835C16.8884 9.45835 16.8549 9.40017 16.7742 9.38126L15.7196 9.12453C15.2644 9.01398 14.9342 8.66997 14.7902 8.27214C14.7373 8.1238 14.6771 7.97817 14.6098 7.83577C14.5139 7.63748 14.4686 7.41851 14.478 7.19844C14.4874 6.97836 14.5512 6.76405 14.6636 6.57465L15.228 5.64808C15.2716 5.57681 15.2542 5.51281 15.228 5.48226C15.0084 5.22922 14.7712 4.99201 14.5182 4.77243C14.4876 4.74624 14.4229 4.72879 14.3524 4.77243L13.4251 5.3368C13.2358 5.44926 13.0216 5.51304 12.8017 5.52243C12.5817 5.53183 12.3629 5.48654 12.1647 5.39062C12.0222 5.32342 11.8766 5.26299 11.7284 5.20953C11.5205 5.13697 11.3339 5.01414 11.1851 4.85196C11.0362 4.68979 10.9298 4.49332 10.8753 4.28005L10.62 3.22548C10.6004 3.14548 10.5422 3.11203 10.5022 3.10912C10.1681 3.08511 9.83266 3.08511 9.49855 3.10912Z" fill="#5C8000"/>
<path d="M12.9092 10.0007C12.9092 10.7723 12.6027 11.5123 12.0572 12.0578C11.5116 12.6034 10.7717 12.9099 10.0001 12.9099C9.2286 12.9099 8.48866 12.6034 7.9431 12.0578C7.39754 11.5123 7.09105 10.7723 7.09105 10.0007C7.09105 9.22919 7.39754 8.48924 7.9431 7.94367C8.48866 7.39809 9.2286 7.09159 10.0001 7.09159C10.7717 7.09159 11.5116 7.39809 12.0572 7.94367C12.6027 8.48924 12.9092 9.22919 12.9092 10.0007ZM11.8183 10.0007C11.8183 9.51853 11.6268 9.05605 11.2858 8.71507C10.9448 8.37409 10.4824 8.18253 10.0001 8.18253C9.51793 8.18253 9.05547 8.37409 8.71449 8.71507C8.37352 9.05605 8.18196 9.51853 8.18196 10.0007C8.18196 10.483 8.37352 10.9454 8.71449 11.2864C9.05547 11.6274 9.51793 11.819 10.0001 11.819C10.4824 11.819 10.9448 11.6274 11.2858 11.2864C11.6268 10.9454 11.8183 10.483 11.8183 10.0007Z" fill="#5C8000"/>
</svg>
