<svg width="32" height="32" viewBox="0 0 32 32" fill="none" xmlns="http://www.w3.org/2000/svg">
<g id="042-shake" clip-path="url(#clip0_1883_30010)">
<g id="Group">
<path id="Vector" d="M27.0746 5.4755H25.4861L23.6338 1.77099H16.9257V0.195129H15.0736V1.77099H8.36539L6.51314 5.4755H4.92462V11.0322H6.21284L7.44772 31.8048H24.5516L25.7864 11.0322H27.0747V5.4755H27.0746ZM6.77676 9.18002V7.32764H25.2225V9.18002H6.77676ZM9.51007 3.62312H22.4892L23.4153 5.4755H8.58388L9.51007 3.62312ZM9.19299 29.9527L8.28847 14.7367H23.7108L23.6006 16.589H19.8891V18.4412H23.4906L23.3805 20.2936H19.8891V22.1457H23.2704L23.1602 23.998H19.8891V25.8502H23.0501L22.8062 29.9527H9.19299ZM23.8208 12.8845H8.17833L8.06819 11.0322H23.9309L23.8208 12.8845Z" fill="#25472F"/>
<path id="Vector_2" d="M11.4305 18.4412H13.2827V20.2934H11.4305V18.4412Z" fill="#25472F"/>
<path id="Vector_3" d="M15.074 22.0096H16.9263V23.8617H15.074V22.0096Z" fill="#25472F"/>
</g>
</g>
<defs>
<clipPath id="clip0_1883_30010">
<rect width="31.6098" height="31.6098" fill="white" transform="translate(0.195129 0.195129)"/>
</clipPath>
</defs>
</svg>
