<svg width="26" height="26" viewBox="0 0 26 26" fill="none" xmlns="http://www.w3.org/2000/svg">
<g id="Telegram">
<path id="Vector" d="M5.84316 12.7134C9.62361 11.0317 12.1445 9.92304 13.4058 9.38738C17.0072 7.85796 17.7556 7.59228 18.2433 7.58341C18.3506 7.58158 18.5905 7.60872 18.7458 7.73745C18.877 7.84614 18.9131 7.99297 18.9304 8.09602C18.9477 8.19907 18.9692 8.43383 18.9521 8.61726C18.7569 10.7109 17.9125 15.7917 17.4829 18.1366C17.3011 19.1288 16.9431 19.4615 16.5966 19.4941C15.8435 19.5648 15.2717 18.9859 14.5423 18.4978C13.4009 17.7339 12.7561 17.2583 11.6482 16.5129C10.3679 15.6514 11.1979 15.178 11.9275 14.4042C12.1185 14.2017 15.4366 11.1202 15.5008 10.8406C15.5088 10.8057 15.5163 10.6753 15.4405 10.6065C15.3646 10.5377 15.2527 10.5612 15.172 10.58C15.0575 10.6065 13.2342 11.837 9.70197 14.2714C9.18442 14.6343 8.71564 14.8111 8.29563 14.8018C7.8326 14.7916 6.94192 14.5345 6.2798 14.3148C5.46767 14.0452 4.82221 13.9027 4.87841 13.4449C4.90769 13.2065 5.22927 12.9627 5.84316 12.7134Z" fill="#90949A"/>
</g>
</svg>
