<svg width="34" height="34" viewBox="0 0 34 34" fill="none" xmlns="http://www.w3.org/2000/svg">
<g id="Iconex/Light/Credit card">
<g id="Credit card">
<rect id="Rectangle 2" x="4.99805" y="7.40308" width="24.0026" height="19.2021" rx="6.00065" stroke="#25472F" stroke-width="1.8002"/>
<path id="Line" d="M4.99805 14.0059H29.0007" stroke="#25472F" stroke-width="1.8002" stroke-linecap="round" stroke-linejoin="round"/>
<path id="Vector" d="M12.7106 18.7552L11.2688 22.0323H10.3281L9.61866 19.4166C9.57553 19.2557 9.53836 19.1967 9.40712 19.1289C9.19329 19.0183 8.83995 18.9147 8.5293 18.85L8.55041 18.7552H10.0647C10.1636 18.7551 10.2594 18.7887 10.3346 18.8499C10.4098 18.9112 10.4596 18.996 10.4749 19.0892L10.8498 20.9857L11.7758 18.7552H12.7106ZM16.3967 20.9625C16.4004 20.0973 15.1412 20.0497 15.1499 19.6632C15.1527 19.5456 15.2701 19.4205 15.5271 19.3886C15.8283 19.3614 16.1316 19.4121 16.4049 19.5355L16.561 18.8404C16.2948 18.7451 16.0129 18.6958 15.7286 18.6948C14.8489 18.6948 14.2299 19.1408 14.2244 19.7786C14.2189 20.2503 14.6663 20.5131 15.0035 20.6705C15.3504 20.8309 15.467 20.9341 15.4652 21.0775C15.4629 21.2978 15.1889 21.3944 14.9329 21.3984C14.4855 21.4049 14.2262 21.2834 14.0188 21.1916L13.8577 21.9094C14.0656 22.0004 14.4492 22.0799 14.8471 22.0834C15.7818 22.0834 16.3935 21.6436 16.3967 20.9625ZM18.719 22.0323H19.5423L18.8241 18.7552H18.0642C17.983 18.7544 17.9035 18.777 17.8359 18.8199C17.7683 18.8627 17.7158 18.924 17.6852 18.9956L16.3503 22.0323H17.2846L17.4704 21.5426H18.6121L18.719 22.0323ZM17.7265 20.8711L18.1945 19.6405L18.4644 20.8711H17.7265ZM13.9821 18.7552L13.2465 22.0323H12.3563L13.0928 18.7552H13.9821Z" fill="#25472F"/>
</g>
</g>
</svg>
