<svg width="26" height="26" viewBox="0 0 26 26" fill="none" xmlns="http://www.w3.org/2000/svg">
<g id="Vkontakte (VK)">
<path id="Vector" fill-rule="evenodd" clip-rule="evenodd" d="M21.2691 8.95625C21.3897 8.55451 21.2691 8.25923 20.6956 8.25923H18.7994C18.3172 8.25923 18.095 8.51428 17.9745 8.79561C17.9745 8.79561 17.0101 11.146 15.644 12.6728C15.202 13.1148 15.0011 13.2552 14.76 13.2552C14.6395 13.2552 14.465 13.1148 14.465 12.713V8.95625C14.465 8.47405 14.3251 8.25923 13.9232 8.25923H10.9434C10.6421 8.25923 10.4609 8.48299 10.4609 8.6951C10.4609 9.15224 11.1438 9.25762 11.2143 10.5433V13.3358C11.2143 13.9481 11.1037 14.0591 10.8626 14.0591C10.2198 14.0591 8.65619 11.698 7.72864 8.99648C7.54687 8.47134 7.36456 8.25923 6.87992 8.25923H4.98365C4.44185 8.25923 4.3335 8.51428 4.3335 8.79561C4.3335 9.29785 4.97647 11.789 7.3269 15.0837C8.89404 17.3335 11.1016 18.5533 13.1105 18.5533C14.316 18.5533 14.465 18.2824 14.465 17.8158V16.1152C14.465 15.5734 14.5792 15.4654 14.9608 15.4654C15.2422 15.4654 15.7243 15.6059 16.8495 16.6908C18.1351 17.9763 18.347 18.5533 19.0703 18.5533H20.9665C21.5083 18.5533 21.7792 18.2824 21.6229 17.7478C21.452 17.2149 20.8381 16.4421 20.0236 15.5256C19.5816 15.0032 18.9186 14.4407 18.7178 14.1595C18.4365 13.7978 18.5168 13.6372 18.7178 13.3159C18.7178 13.3159 21.028 10.0614 21.2691 8.95638V8.95625Z" fill="#90949A"/>
</g>
</svg>
