<svg width="26" height="26" viewBox="0 0 26 26" fill="none" xmlns="http://www.w3.org/2000/svg">
<g id="WhatsApp">
<g id="WhatsApp_2">
<g id="Vector">
<path fill-rule="evenodd" clip-rule="evenodd" d="M13.5355 18.7157C12.4287 18.7157 11.322 18.4287 10.3792 17.8549L10.1332 17.7319L7.75575 18.3468L8.37062 16.0103L8.20665 15.7643C6.40305 12.854 7.26386 9.00082 10.2152 7.19721C13.1666 5.39361 16.9787 6.25442 18.7823 9.20577C20.5859 12.1571 19.7251 15.9693 16.7738 17.7729C15.831 18.3878 14.6832 18.7157 13.5355 18.7157ZM16.6918 13.9607L17.1427 14.1657C17.2247 14.2067 17.2657 14.2477 17.2657 14.2477V14.5346C17.2247 14.7396 17.1837 14.9445 17.1017 15.1085C17.0607 15.1905 16.9787 15.2724 16.8967 15.3544C16.8148 15.4364 16.7328 15.4774 16.6508 15.5594L16.5688 15.6414C16.4868 15.7233 16.4049 15.7233 16.2819 15.8053C16.1179 15.8873 15.872 15.9693 15.667 15.9693H15.2571C15.1341 15.9283 14.9702 15.9283 14.8472 15.8873C13.7404 15.6004 12.7567 15.0675 11.8958 14.3296C11.8139 14.2067 11.6909 14.1247 11.5679 14.0017L11.404 13.8378C10.7481 13.2229 10.2562 12.526 9.88728 11.7472L9.84629 11.6242C9.72332 11.3373 9.64134 11.0094 9.64134 10.6814C9.64134 10.2305 9.8053 9.77964 10.0922 9.41073C10.1742 9.32874 10.2152 9.24676 10.2972 9.16478C10.3792 9.12379 10.4612 9.04181 10.5431 9.00082L10.5841 8.95983C10.6661 8.95983 10.7481 8.91883 10.8301 8.91883H11.158H11.281C11.404 8.95983 11.4859 9.00082 11.5679 9.12379C11.6909 9.36974 12.1828 10.4765 12.2238 10.6814C12.2648 10.8044 12.2238 10.9684 12.1418 11.0914C12.0598 11.1733 12.0188 11.2963 11.9368 11.3783C11.8139 11.5013 11.6499 11.7062 11.6499 11.7062C11.6089 11.7472 11.6089 11.8292 11.6089 11.9112C11.6499 11.9932 11.6499 12.0341 11.6909 12.0751L11.7319 12.1571C11.9368 12.526 12.2238 12.854 12.5107 13.1409C12.5927 13.2229 12.7157 13.3049 12.7976 13.3869C13.1256 13.7148 13.5355 13.9607 13.9864 14.1657L14.1913 14.2477C14.2323 14.2887 14.3143 14.3296 14.3553 14.3296H14.3963C14.4783 14.3296 14.5603 14.2887 14.6012 14.2067C15.1751 13.5508 15.2161 13.5098 15.2161 13.5098C15.2981 13.4688 15.3801 13.4278 15.503 13.4278C15.544 13.4278 15.585 13.4688 15.626 13.4688C16.0359 13.6738 16.6918 13.9607 16.6918 13.9607Z" fill="#333333" fill-opacity="0.6"/>
<path fill-rule="evenodd" clip-rule="evenodd" d="M13.5355 4.94271C15.503 4.94271 17.4296 5.72154 18.8233 7.15622C20.217 8.54992 20.9958 10.4355 20.9958 12.4441C20.9958 16.5841 17.6346 19.9864 13.4945 19.9864C12.2648 19.9864 11.035 19.6995 9.92827 19.0846L5.95215 20.1094L7.01791 16.2152C6.40305 15.0675 6.03413 13.7968 6.03413 12.4851C5.99314 8.34496 9.3544 4.94271 13.5355 4.94271ZM10.1332 17.7319L10.3792 17.8549C11.322 18.4287 12.4287 18.7157 13.5355 18.7157C14.6832 18.7157 15.831 18.3878 16.7738 17.7729C19.7251 15.9693 20.5859 12.1571 18.7823 9.20577C16.9787 6.25442 13.1666 5.39361 10.2152 7.19721C7.26386 9.00082 6.40305 12.854 8.20665 15.7643L8.37062 16.0103L7.75575 18.3468L10.1332 17.7319Z" fill="#333333" fill-opacity="0.6"/>
</g>
</g>
</g>
</svg>
