<svg width="26" height="26" viewBox="0 0 26 26" fill="none" xmlns="http://www.w3.org/2000/svg">
<g id="YouTube">
<path id="Exclude" fill-rule="evenodd" clip-rule="evenodd" d="M19.3581 7.65919C20.0541 7.84659 20.6029 8.39539 20.7903 9.09144C21.1383 10.3631 21.1249 13.0134 21.1249 13.0134C21.1249 13.0134 21.1249 15.6503 20.7903 16.9219C20.6029 17.618 20.0541 18.1668 19.3581 18.3542C18.0864 18.6888 13 18.6888 13 18.6888C13 18.6888 7.92688 18.6888 6.64188 18.3408C5.94584 18.1534 5.39703 17.6046 5.20964 16.9085C4.875 15.6503 4.875 13 4.875 13C4.875 13 4.875 10.3631 5.20964 9.09144C5.39703 8.39539 5.95922 7.8332 6.64188 7.64581C7.9135 7.31117 13 7.31117 13 7.31117C13 7.31117 18.0864 7.31117 19.3581 7.65919ZM15.6101 13L11.3803 15.4361V10.5638L15.6101 13Z" fill="#90949A"/>
</g>
</svg>
