<svg width="17" height="17" viewBox="0 0 17 17" fill="none" xmlns="http://www.w3.org/2000/svg">
<path d="M15.9715 1.04229C15.6658 0.730832 15.2782 0.512224 14.8535 0.41174C14.4288 0.311257 13.9843 0.333002 13.5714 0.474462L2.25072 4.2573C1.79414 4.40669 1.39522 4.69408 1.10901 5.07979C0.822809 5.4655 0.663439 5.93052 0.652902 6.41064C0.642365 6.89076 0.781183 7.36231 1.05019 7.7602C1.3192 8.15808 1.70513 8.46268 2.15471 8.63195L6.34695 10.2315C6.44241 10.2679 6.52933 10.3237 6.60228 10.3953C6.67524 10.4668 6.73266 10.5526 6.77098 10.6473L8.37107 14.846C8.53395 15.2891 8.82951 15.6712 9.21749 15.9402C9.60547 16.2093 10.067 16.3522 10.5392 16.3496H10.5952C11.076 16.3408 11.5421 16.1819 11.928 15.8951C12.314 15.6082 12.6005 15.2078 12.7473 14.7501L16.5315 3.41756C16.6692 3.00883 16.6897 2.56977 16.5907 2.15001C16.4917 1.73026 16.2772 1.34655 15.9715 1.04229ZM15.0515 2.91371L11.2272 14.2542C11.1828 14.3977 11.0936 14.5233 10.9727 14.6125C10.8518 14.7017 10.7055 14.7499 10.5552 14.7501C10.4058 14.7525 10.2592 14.7094 10.1348 14.6266C10.0105 14.5437 9.91436 14.425 9.85916 14.2862L8.25906 10.0875C8.14306 9.78242 7.96416 9.50513 7.73398 9.27366C7.5038 9.04218 7.22749 8.8617 6.92299 8.74392L2.72274 7.14441C2.58105 7.09251 2.45925 6.99741 2.37455 6.87256C2.28985 6.74771 2.24653 6.59942 2.25072 6.44862C2.25084 6.29838 2.29905 6.15213 2.3883 6.03125C2.47756 5.91037 2.60316 5.82122 2.74675 5.77683L14.0914 1.99399C14.2216 1.94093 14.3645 1.92671 14.5026 1.95307C14.6408 1.97942 14.7684 2.04522 14.8699 2.1425C14.9715 2.23978 15.0427 2.36438 15.0749 2.50125C15.1071 2.63811 15.099 2.78137 15.0515 2.91371Z" fill="#25472F"/>
</svg>
