<svg width="16" height="16" viewBox="0 0 16 16" fill="none" xmlns="http://www.w3.org/2000/svg">
<g clip-path="url(#clip0_3063_13352)">
<path d="M14.8571 8.87953H8.90234V14.8572C8.90234 15.5 8.6 16 8 16C7.4 16 7.11265 15.5 7.11265 14.8572V8.87953H1.14282C0.5 8.87953 0 8.6 0 8C0 7.4 0.5 7.13669 1.14282 7.13669H7.11265V1.14288C7.11265 0.5 7.4 0 8 0C8.6 0 8.90234 0.5 8.90234 1.14288V7.13669H14.8571C15.5 7.13669 16 7.4 16 8C16 8.6 15.5 8.87953 14.8571 8.87953Z" fill="#25472F"/>
</g>
<defs>
<clipPath id="clip0_3063_13352">
<rect width="16" height="16" fill="white"/>
</clipPath>
</defs>
</svg>
